STARTFONT 2.1
FONT -FontForge-Archivo Narrow-Bold-R-Normal--16-120-96-96-P-76-ISO10646-1
SIZE 12 96 96
FONTBOUNDINGBOX 18 20 -3 -4
COMMENT "Generated by fontforge, http://fontforge.sourceforge.net"
COMMENT "Copyright (c) 2012, Omnibus-Type (www.omnibus-type.com|omnibus.type@gmail.com),with Reserved Font Name: Archivo"
STARTPROPERTIES 40
FOUNDRY "FontForge"
FAMILY_NAME "Archivo Narrow"
WEIGHT_NAME "Bold"
SLANT "R"
SETWIDTH_NAME "Normal"
ADD_STYLE_NAME ""
PIXEL_SIZE 16
POINT_SIZE 120
RESOLUTION_X 96
RESOLUTION_Y 96
SPACING "P"
AVERAGE_WIDTH 76
CHARSET_REGISTRY "ISO10646"
CHARSET_ENCODING "1"
FONTNAME_REGISTRY ""
CHARSET_COLLECTIONS "ISO8859-2 ISO8859-9 ISO8859-4 ISO10646-1"
FONT_NAME "ArchivoNarrow-Bold"
FACE_NAME "Archivo Narrow Bold"
COPYRIGHT "Copyright (c) 2012, Omnibus-Type (www.omnibus-type.com|omnibus.type@gmail.com),with Reserved Font Name: Archivo"
FONT_VERSION "1.002; ttfautohint (v0.8)"
FONT_ASCENT 13
FONT_DESCENT 3
UNDERLINE_POSITION -1
UNDERLINE_THICKNESS 1
X_HEIGHT 8
CAP_HEIGHT 10
RAW_ASCENT 799
RAW_DESCENT 200
NORM_SPACE 4
RELATIVE_WEIGHT 70
RELATIVE_SETWIDTH 50
SUPERSCRIPT_X 0
SUPERSCRIPT_Y 7
SUPERSCRIPT_SIZE 10
SUBSCRIPT_X 0
SUBSCRIPT_Y 2
SUBSCRIPT_SIZE 10
FIGURE_WIDTH 7
AVG_LOWERCASE_WIDTH 71
AVG_UPPERCASE_WIDTH 88
ENDPROPERTIES
CHARS 416
STARTCHAR nonmarkingreturn
ENCODING 13
SWIDTH 0 0
DWIDTH 0 0
BBX 1 1 0 0
BITMAP
00
ENDCHAR
STARTCHAR space
ENCODING 32
SWIDTH 228 0
DWIDTH 4 0
BBX 1 1 0 0
BITMAP
00
ENDCHAR
STARTCHAR exclam
ENCODING 33
SWIDTH 272 0
DWIDTH 4 0
BBX 2 11 1 0
BITMAP
C0
C0
C0
C0
C0
C0
C0
C0
00
C0
C0
ENDCHAR
STARTCHAR quotedbl
ENCODING 34
SWIDTH 389 0
DWIDTH 6 0
BBX 5 5 1 6
BITMAP
D8
D8
D8
D0
90
ENDCHAR
STARTCHAR numbersign
ENCODING 35
SWIDTH 456 0
DWIDTH 7 0
BBX 7 11 0 0
BITMAP
16
34
7E
7E
2C
2C
FE
FE
48
58
D8
ENDCHAR
STARTCHAR dollar
ENCODING 36
SWIDTH 456 0
DWIDTH 7 0
BBX 6 13 1 -1
BITMAP
20
20
78
F8
AC
E0
78
3C
AC
FC
78
20
20
ENDCHAR
STARTCHAR percent
ENCODING 37
SWIDTH 729 0
DWIDTH 12 0
BBX 10 11 1 0
BITMAP
E180
B100
9200
B600
E400
0F80
0AC0
1240
3240
2240
4380
ENDCHAR
STARTCHAR ampersand
ENCODING 38
SWIDTH 591 0
DWIDTH 9 0
BBX 8 11 1 0
BITMAP
7C
FE
C6
C0
77
F7
C6
C6
C6
FC
78
ENDCHAR
STARTCHAR quotesingle
ENCODING 39
SWIDTH 194 0
DWIDTH 3 0
BBX 2 5 1 6
BITMAP
C0
C0
C0
80
80
ENDCHAR
STARTCHAR parenleft
ENCODING 40
SWIDTH 272 0
DWIDTH 4 0
BBX 4 15 0 -3
BITMAP
10
20
60
60
60
40
40
C0
40
40
60
60
60
20
10
ENDCHAR
STARTCHAR parenright
ENCODING 41
SWIDTH 272 0
DWIDTH 4 0
BBX 4 15 0 -3
BITMAP
C0
40
60
20
30
30
30
30
30
30
30
20
60
40
C0
ENDCHAR
STARTCHAR asterisk
ENCODING 42
SWIDTH 318 0
DWIDTH 5 0
BBX 5 5 0 6
BITMAP
20
F8
30
F8
20
ENDCHAR
STARTCHAR plus
ENCODING 43
SWIDTH 479 0
DWIDTH 8 0
BBX 6 9 1 0
BITMAP
30
30
30
30
FC
FC
30
30
30
ENDCHAR
STARTCHAR comma
ENCODING 44
SWIDTH 228 0
DWIDTH 4 0
BBX 2 5 1 -3
BITMAP
C0
C0
C0
80
80
ENDCHAR
STARTCHAR hyphen
ENCODING 45
SWIDTH 272 0
DWIDTH 4 0
BBX 4 2 0 4
BITMAP
F0
F0
ENDCHAR
STARTCHAR period
ENCODING 46
SWIDTH 228 0
DWIDTH 4 0
BBX 2 2 1 0
BITMAP
C0
C0
ENDCHAR
STARTCHAR slash
ENCODING 47
SWIDTH 228 0
DWIDTH 4 0
BBX 4 13 0 -1
BITMAP
30
20
20
20
20
60
60
40
40
40
C0
C0
80
ENDCHAR
STARTCHAR zero
ENCODING 48
SWIDTH 456 0
DWIDTH 7 0
BBX 7 11 0 0
BITMAP
38
7C
C6
C6
C6
C6
C6
C6
C6
7C
38
ENDCHAR
STARTCHAR one
ENCODING 49
SWIDTH 456 0
DWIDTH 7 0
BBX 6 11 1 0
BITMAP
30
F0
F0
30
30
30
30
30
30
FC
FC
ENDCHAR
STARTCHAR two
ENCODING 50
SWIDTH 456 0
DWIDTH 7 0
BBX 6 11 1 0
BITMAP
78
FC
CC
CC
18
18
30
60
E0
FC
FC
ENDCHAR
STARTCHAR three
ENCODING 51
SWIDTH 456 0
DWIDTH 7 0
BBX 6 11 1 0
BITMAP
78
FC
CC
0C
38
38
0C
0C
CC
FC
78
ENDCHAR
STARTCHAR four
ENCODING 52
SWIDTH 456 0
DWIDTH 7 0
BBX 7 11 0 0
BITMAP
1C
1C
3C
3C
6C
6C
CC
FE
FE
0C
0C
ENDCHAR
STARTCHAR five
ENCODING 53
SWIDTH 456 0
DWIDTH 7 0
BBX 6 11 1 0
BITMAP
FC
FC
C0
C0
F8
FC
0C
0C
CC
FC
78
ENDCHAR
STARTCHAR six
ENCODING 54
SWIDTH 456 0
DWIDTH 7 0
BBX 6 11 1 0
BITMAP
78
FC
CC
C0
F8
FC
CC
CC
CC
FC
78
ENDCHAR
STARTCHAR seven
ENCODING 55
SWIDTH 456 0
DWIDTH 7 0
BBX 7 11 0 0
BITMAP
FE
FE
0C
0C
18
18
30
30
30
30
30
ENDCHAR
STARTCHAR eight
ENCODING 56
SWIDTH 456 0
DWIDTH 7 0
BBX 6 11 1 0
BITMAP
78
FC
CC
CC
FC
78
CC
CC
CC
FC
78
ENDCHAR
STARTCHAR nine
ENCODING 57
SWIDTH 456 0
DWIDTH 7 0
BBX 6 11 1 0
BITMAP
78
FC
CC
CC
CC
FC
7C
0C
CC
FC
78
ENDCHAR
STARTCHAR colon
ENCODING 58
SWIDTH 272 0
DWIDTH 4 0
BBX 2 9 1 0
BITMAP
C0
C0
00
00
00
00
00
C0
C0
ENDCHAR
STARTCHAR semicolon
ENCODING 59
SWIDTH 272 0
DWIDTH 4 0
BBX 2 12 1 -3
BITMAP
C0
C0
00
00
00
00
00
C0
C0
40
C0
80
ENDCHAR
STARTCHAR less
ENCODING 60
SWIDTH 479 0
DWIDTH 8 0
BBX 6 9 1 0
BITMAP
04
0C
38
E0
80
E0
78
1C
04
ENDCHAR
STARTCHAR equal
ENCODING 61
SWIDTH 479 0
DWIDTH 8 0
BBX 6 5 1 2
BITMAP
FC
FC
00
FC
FC
ENDCHAR
STARTCHAR greater
ENCODING 62
SWIDTH 479 0
DWIDTH 8 0
BBX 6 9 1 0
BITMAP
80
C0
F0
3C
0C
1C
78
E0
80
ENDCHAR
STARTCHAR question
ENCODING 63
SWIDTH 500 0
DWIDTH 8 0
BBX 6 11 1 0
BITMAP
78
FC
CC
CC
0C
18
38
30
00
30
30
ENDCHAR
STARTCHAR at
ENCODING 64
SWIDTH 799 0
DWIDTH 13 0
BBX 12 14 0 -3
BITMAP
0F80
3060
2730
4F90
4D90
4190
C790
CF90
C990
4FF0
4EE0
6000
3080
1F80
ENDCHAR
STARTCHAR A
ENCODING 65
SWIDTH 591 0
DWIDTH 9 0
BBX 9 11 0 0
BITMAP
1C00
1C00
3600
3600
3600
6300
6300
7F00
FF80
C180
C180
ENDCHAR
STARTCHAR B
ENCODING 66
SWIDTH 591 0
DWIDTH 9 0
BBX 8 11 1 0
BITMAP
FE
FF
C3
C3
FE
FE
C7
C3
C3
FF
FE
ENDCHAR
STARTCHAR C
ENCODING 67
SWIDTH 591 0
DWIDTH 9 0
BBX 8 11 1 0
BITMAP
3C
7E
C7
C3
C0
C0
C0
C3
C3
7E
3C
ENDCHAR
STARTCHAR D
ENCODING 68
SWIDTH 591 0
DWIDTH 9 0
BBX 8 11 1 0
BITMAP
FC
FE
C6
C3
C3
C3
C3
C3
C6
FE
FC
ENDCHAR
STARTCHAR E
ENCODING 69
SWIDTH 546 0
DWIDTH 9 0
BBX 7 11 1 0
BITMAP
FE
FE
C0
C0
FC
FC
C0
C0
C0
FE
FE
ENDCHAR
STARTCHAR F
ENCODING 70
SWIDTH 500 0
DWIDTH 8 0
BBX 6 11 1 0
BITMAP
FC
FC
C0
C0
FC
FC
C0
C0
C0
C0
C0
ENDCHAR
STARTCHAR G
ENCODING 71
SWIDTH 638 0
DWIDTH 10 0
BBX 8 11 1 0
BITMAP
3C
7E
C3
C3
C0
CF
CF
C3
C3
7F
3D
ENDCHAR
STARTCHAR H
ENCODING 72
SWIDTH 591 0
DWIDTH 9 0
BBX 8 11 1 0
BITMAP
C3
C3
C3
C3
FF
FF
C3
C3
C3
C3
C3
ENDCHAR
STARTCHAR I
ENCODING 73
SWIDTH 228 0
DWIDTH 4 0
BBX 2 11 1 0
BITMAP
C0
C0
C0
C0
C0
C0
C0
C0
C0
C0
C0
ENDCHAR
STARTCHAR J
ENCODING 74
SWIDTH 456 0
DWIDTH 7 0
BBX 6 11 0 0
BITMAP
0C
0C
0C
0C
0C
0C
0C
CC
CC
FC
78
ENDCHAR
STARTCHAR K
ENCODING 75
SWIDTH 591 0
DWIDTH 9 0
BBX 8 11 1 0
BITMAP
C3
C7
CE
DC
F8
FC
EC
CE
C6
C7
C3
ENDCHAR
STARTCHAR L
ENCODING 76
SWIDTH 500 0
DWIDTH 8 0
BBX 7 11 1 0
BITMAP
C0
C0
C0
C0
C0
C0
C0
C0
C0
FE
FE
ENDCHAR
STARTCHAR M
ENCODING 77
SWIDTH 683 0
DWIDTH 11 0
BBX 9 11 1 0
BITMAP
C180
C180
E380
E380
F780
F780
F780
DD80
DD80
C980
C980
ENDCHAR
STARTCHAR N
ENCODING 78
SWIDTH 591 0
DWIDTH 9 0
BBX 8 11 1 0
BITMAP
C3
E3
E3
F3
F3
DB
DB
CF
C7
C7
C3
ENDCHAR
STARTCHAR O
ENCODING 79
SWIDTH 638 0
DWIDTH 10 0
BBX 8 11 1 0
BITMAP
3C
7E
C3
C3
C3
C3
C3
C3
C3
7E
3C
ENDCHAR
STARTCHAR P
ENCODING 80
SWIDTH 546 0
DWIDTH 9 0
BBX 7 11 1 0
BITMAP
FC
FE
C6
C6
C6
FE
FC
C0
C0
C0
C0
ENDCHAR
STARTCHAR Q
ENCODING 81
SWIDTH 638 0
DWIDTH 10 0
BBX 8 13 1 -2
BITMAP
3C
7E
C3
C3
C3
C3
C3
C3
C3
7E
3C
0E
07
ENDCHAR
STARTCHAR R
ENCODING 82
SWIDTH 591 0
DWIDTH 9 0
BBX 8 11 1 0
BITMAP
FE
FF
C3
C3
FE
FC
CC
CE
C6
C7
C3
ENDCHAR
STARTCHAR S
ENCODING 83
SWIDTH 546 0
DWIDTH 9 0
BBX 7 11 1 0
BITMAP
7C
FE
C6
C0
F0
7C
0E
06
C6
FE
7C
ENDCHAR
STARTCHAR T
ENCODING 84
SWIDTH 500 0
DWIDTH 8 0
BBX 8 11 0 0
BITMAP
FF
FF
18
18
18
18
18
18
18
18
18
ENDCHAR
STARTCHAR U
ENCODING 85
SWIDTH 591 0
DWIDTH 9 0
BBX 8 11 1 0
BITMAP
C3
C3
C3
C3
C3
C3
C3
C3
C3
7E
3C
ENDCHAR
STARTCHAR V
ENCODING 86
SWIDTH 546 0
DWIDTH 9 0
BBX 9 11 0 0
BITMAP
C180
C180
6300
6300
6300
3600
3600
3600
1C00
1C00
1C00
ENDCHAR
STARTCHAR W
ENCODING 87
SWIDTH 773 0
DWIDTH 12 0
BBX 12 11 0 0
BITMAP
C630
C630
C630
6F60
6F60
6960
39C0
39C0
39C0
39C0
1080
ENDCHAR
STARTCHAR X
ENCODING 88
SWIDTH 546 0
DWIDTH 9 0
BBX 7 11 1 0
BITMAP
C6
C6
6C
6C
38
38
78
6C
6C
C6
C6
ENDCHAR
STARTCHAR Y
ENCODING 89
SWIDTH 546 0
DWIDTH 9 0
BBX 8 11 0 0
BITMAP
C3
66
66
3C
3C
18
18
18
18
18
18
ENDCHAR
STARTCHAR Z
ENCODING 90
SWIDTH 500 0
DWIDTH 8 0
BBX 8 11 0 0
BITMAP
FF
FF
06
0C
1C
18
30
30
60
FF
FF
ENDCHAR
STARTCHAR bracketleft
ENCODING 91
SWIDTH 272 0
DWIDTH 4 0
BBX 3 15 1 -3
BITMAP
E0
E0
C0
C0
C0
C0
C0
C0
C0
C0
C0
C0
C0
E0
E0
ENDCHAR
STARTCHAR backslash
ENCODING 92
SWIDTH 228 0
DWIDTH 4 0
BBX 4 13 0 -1
BITMAP
80
C0
C0
40
40
40
60
60
60
20
20
20
30
ENDCHAR
STARTCHAR bracketright
ENCODING 93
SWIDTH 272 0
DWIDTH 4 0
BBX 4 15 0 -3
BITMAP
F0
F0
30
30
30
30
30
30
30
30
30
30
30
F0
F0
ENDCHAR
STARTCHAR asciicircum
ENCODING 94
SWIDTH 479 0
DWIDTH 8 0
BBX 6 6 1 5
BITMAP
30
70
78
58
C8
CC
ENDCHAR
STARTCHAR underscore
ENCODING 95
SWIDTH 456 0
DWIDTH 7 0
BBX 7 2 0 -2
BITMAP
FE
FE
ENDCHAR
STARTCHAR grave
ENCODING 96
SWIDTH 272 0
DWIDTH 4 0
BBX 4 2 0 10
BITMAP
E0
30
ENDCHAR
STARTCHAR a
ENCODING 97
SWIDTH 456 0
DWIDTH 7 0
BBX 7 9 0 0
BITMAP
78
FC
CC
1C
7C
EC
CC
FE
76
ENDCHAR
STARTCHAR b
ENCODING 98
SWIDTH 500 0
DWIDTH 8 0
BBX 6 12 1 0
BITMAP
C0
C0
C0
F8
FC
CC
CC
CC
CC
CC
FC
F8
ENDCHAR
STARTCHAR c
ENCODING 99
SWIDTH 456 0
DWIDTH 7 0
BBX 6 9 1 0
BITMAP
78
F8
CC
C0
C0
C0
CC
F8
78
ENDCHAR
STARTCHAR d
ENCODING 100
SWIDTH 500 0
DWIDTH 8 0
BBX 6 12 1 0
BITMAP
0C
0C
0C
7C
FC
CC
CC
CC
CC
CC
FC
7C
ENDCHAR
STARTCHAR e
ENCODING 101
SWIDTH 456 0
DWIDTH 7 0
BBX 6 9 1 0
BITMAP
78
FC
CC
FC
FC
C0
CC
FC
78
ENDCHAR
STARTCHAR f
ENCODING 102
SWIDTH 272 0
DWIDTH 4 0
BBX 4 12 0 0
BITMAP
30
70
60
F0
F0
60
60
60
60
60
60
60
ENDCHAR
STARTCHAR g
ENCODING 103
SWIDTH 500 0
DWIDTH 8 0
BBX 8 14 0 -3
BITMAP
03
03
3E
7E
66
66
7E
3C
60
7E
FF
C3
FF
7E
ENDCHAR
STARTCHAR h
ENCODING 104
SWIDTH 500 0
DWIDTH 8 0
BBX 6 12 1 0
BITMAP
C0
C0
C0
F8
FC
CC
CC
CC
CC
CC
CC
CC
ENDCHAR
STARTCHAR i
ENCODING 105
SWIDTH 228 0
DWIDTH 4 0
BBX 2 12 1 0
BITMAP
C0
C0
00
C0
C0
C0
C0
C0
C0
C0
C0
C0
ENDCHAR
STARTCHAR j
ENCODING 106
SWIDTH 228 0
DWIDTH 4 0
BBX 4 15 -1 -3
BITMAP
30
30
00
30
30
30
30
30
30
30
30
30
30
F0
E0
ENDCHAR
STARTCHAR k
ENCODING 107
SWIDTH 456 0
DWIDTH 7 0
BBX 6 12 1 0
BITMAP
C0
C0
C0
CC
CC
D8
F0
F0
D8
D8
CC
CC
ENDCHAR
STARTCHAR l
ENCODING 108
SWIDTH 228 0
DWIDTH 4 0
BBX 2 12 1 0
BITMAP
C0
C0
C0
C0
C0
C0
C0
C0
C0
C0
C0
C0
ENDCHAR
STARTCHAR m
ENCODING 109
SWIDTH 729 0
DWIDTH 12 0
BBX 10 9 1 0
BITMAP
FB80
FFC0
CCC0
CCC0
CCC0
CCC0
CCC0
CCC0
CCC0
ENDCHAR
STARTCHAR n
ENCODING 110
SWIDTH 500 0
DWIDTH 8 0
BBX 6 9 1 0
BITMAP
F8
FC
CC
CC
CC
CC
CC
CC
CC
ENDCHAR
STARTCHAR o
ENCODING 111
SWIDTH 500 0
DWIDTH 8 0
BBX 6 9 1 0
BITMAP
78
FC
CC
CC
CC
CC
CC
FC
78
ENDCHAR
STARTCHAR p
ENCODING 112
SWIDTH 500 0
DWIDTH 8 0
BBX 6 12 1 -3
BITMAP
F8
FC
CC
CC
CC
CC
CC
FC
F8
C0
C0
C0
ENDCHAR
STARTCHAR q
ENCODING 113
SWIDTH 500 0
DWIDTH 8 0
BBX 6 12 1 -3
BITMAP
7C
FC
CC
CC
CC
CC
CC
FC
7C
0C
0C
0C
ENDCHAR
STARTCHAR r
ENCODING 114
SWIDTH 318 0
DWIDTH 5 0
BBX 4 9 1 0
BITMAP
F0
F0
C0
C0
C0
C0
C0
C0
C0
ENDCHAR
STARTCHAR s
ENCODING 115
SWIDTH 456 0
DWIDTH 7 0
BBX 6 9 1 0
BITMAP
78
FC
CC
E0
78
1C
CC
FC
78
ENDCHAR
STARTCHAR t
ENCODING 116
SWIDTH 272 0
DWIDTH 4 0
BBX 4 11 0 0
BITMAP
60
60
F0
F0
60
60
60
60
60
70
30
ENDCHAR
STARTCHAR u
ENCODING 117
SWIDTH 500 0
DWIDTH 8 0
BBX 6 9 1 0
BITMAP
CC
CC
CC
CC
CC
CC
CC
FC
7C
ENDCHAR
STARTCHAR v
ENCODING 118
SWIDTH 456 0
DWIDTH 7 0
BBX 7 9 0 0
BITMAP
C6
C6
6C
6C
6C
6C
38
38
10
ENDCHAR
STARTCHAR w
ENCODING 119
SWIDTH 638 0
DWIDTH 10 0
BBX 10 9 0 0
BITMAP
CCC0
CCC0
CCC0
7F80
7F80
7380
3300
3300
3300
ENDCHAR
STARTCHAR x
ENCODING 120
SWIDTH 456 0
DWIDTH 7 0
BBX 7 9 0 0
BITMAP
C6
6C
6C
38
38
38
6C
6C
C6
ENDCHAR
STARTCHAR y
ENCODING 121
SWIDTH 456 0
DWIDTH 7 0
BBX 7 12 0 -3
BITMAP
C6
C6
C6
6C
6C
7C
38
38
18
30
70
60
ENDCHAR
STARTCHAR z
ENCODING 122
SWIDTH 410 0
DWIDTH 7 0
BBX 6 9 0 0
BITMAP
FC
FC
18
18
30
30
60
FC
FC
ENDCHAR
STARTCHAR braceleft
ENCODING 123
SWIDTH 318 0
DWIDTH 5 0
BBX 5 15 0 -3
BITMAP
18
38
30
30
20
20
60
E0
E0
20
20
20
30
38
38
ENDCHAR
STARTCHAR bar
ENCODING 124
SWIDTH 229 0
DWIDTH 4 0
BBX 2 15 1 -3
BITMAP
C0
C0
C0
C0
C0
C0
C0
C0
C0
C0
C0
C0
C0
C0
C0
ENDCHAR
STARTCHAR braceright
ENCODING 125
SWIDTH 318 0
DWIDTH 5 0
BBX 5 15 0 -3
BITMAP
E0
E0
20
20
20
20
30
38
38
20
20
20
20
E0
E0
ENDCHAR
STARTCHAR asciitilde
ENCODING 126
SWIDTH 479 0
DWIDTH 8 0
BBX 7 3 0 3
BITMAP
72
FE
8E
ENDCHAR
STARTCHAR uni00A0
ENCODING 160
SWIDTH 228 0
DWIDTH 4 0
BBX 1 1 0 0
BITMAP
00
ENDCHAR
STARTCHAR exclamdown
ENCODING 161
SWIDTH 272 0
DWIDTH 4 0
BBX 2 12 1 -3
BITMAP
C0
C0
00
00
C0
C0
C0
C0
C0
C0
C0
C0
ENDCHAR
STARTCHAR cent
ENCODING 162
SWIDTH 456 0
DWIDTH 7 0
BBX 6 13 1 -1
BITMAP
20
20
78
F8
EC
A0
A0
A0
EC
F8
78
20
20
ENDCHAR
STARTCHAR sterling
ENCODING 163
SWIDTH 456 0
DWIDTH 7 0
BBX 7 11 0 0
BITMAP
3C
7E
66
60
F8
F8
60
60
60
FE
FE
ENDCHAR
STARTCHAR currency
ENCODING 164
SWIDTH 456 0
DWIDTH 7 0
BBX 7 8 0 2
BITMAP
BA
FE
46
C2
C2
46
FE
BA
ENDCHAR
STARTCHAR yen
ENCODING 165
SWIDTH 456 0
DWIDTH 7 0
BBX 7 11 0 0
BITMAP
C6
66
6C
2C
38
FE
18
FE
FE
18
18
ENDCHAR
STARTCHAR brokenbar
ENCODING 166
SWIDTH 229 0
DWIDTH 4 0
BBX 2 15 1 -3
BITMAP
C0
C0
C0
C0
C0
C0
00
00
00
C0
C0
C0
C0
C0
C0
ENDCHAR
STARTCHAR section
ENCODING 167
SWIDTH 456 0
DWIDTH 7 0
BBX 6 14 1 -3
BITMAP
78
FC
CC
C0
F0
F8
9C
CC
EC
78
1C
CC
F8
78
ENDCHAR
STARTCHAR dieresis
ENCODING 168
SWIDTH 272 0
DWIDTH 4 0
BBX 4 2 0 10
BITMAP
D0
D0
ENDCHAR
STARTCHAR copyright
ENCODING 169
SWIDTH 604 0
DWIDTH 10 0
BBX 9 11 0 0
BITMAP
1E00
6100
5C80
9E80
B280
B080
B280
9E80
4C80
6100
1E00
ENDCHAR
STARTCHAR ordfeminine
ENCODING 170
SWIDTH 303 0
DWIDTH 5 0
BBX 5 6 0 6
BITMAP
70
D0
70
D0
D0
78
ENDCHAR
STARTCHAR guillemotleft
ENCODING 171
SWIDTH 456 0
DWIDTH 7 0
BBX 7 7 0 2
BITMAP
36
2C
6C
D8
6C
2C
36
ENDCHAR
STARTCHAR logicalnot
ENCODING 172
SWIDTH 479 0
DWIDTH 8 0
BBX 7 4 0 4
BITMAP
FE
FE
06
06
ENDCHAR
STARTCHAR uni00AD
ENCODING 173
SWIDTH 272 0
DWIDTH 4 0
BBX 4 2 0 4
BITMAP
F0
F0
ENDCHAR
STARTCHAR registered
ENCODING 174
SWIDTH 604 0
DWIDTH 10 0
BBX 9 11 0 0
BITMAP
1E00
6100
5E80
9E80
9E80
9E80
9280
9280
5380
6100
1E00
ENDCHAR
STARTCHAR macron
ENCODING 175
SWIDTH 272 0
DWIDTH 4 0
BBX 4 2 0 9
BITMAP
F0
F0
ENDCHAR
STARTCHAR degree
ENCODING 176
SWIDTH 399 0
DWIDTH 6 0
BBX 4 5 1 6
BITMAP
70
90
90
90
70
ENDCHAR
STARTCHAR plusminus
ENCODING 177
SWIDTH 548 0
DWIDTH 9 0
BBX 7 10 1 0
BITMAP
10
10
10
FE
FE
10
10
10
FE
FE
ENDCHAR
STARTCHAR twosuperior
ENCODING 178
SWIDTH 272 0
DWIDTH 4 0
BBX 4 7 0 5
BITMAP
70
D0
10
20
40
F0
F0
ENDCHAR
STARTCHAR threesuperior
ENCODING 179
SWIDTH 272 0
DWIDTH 4 0
BBX 4 7 0 5
BITMAP
60
D0
10
20
10
D0
70
ENDCHAR
STARTCHAR acute
ENCODING 180
SWIDTH 272 0
DWIDTH 4 0
BBX 3 2 1 10
BITMAP
60
C0
ENDCHAR
STARTCHAR mu
ENCODING 181
SWIDTH 500 0
DWIDTH 8 0
BBX 6 12 1 -3
BITMAP
CC
CC
CC
CC
CC
CC
CC
FC
FC
C0
C0
C0
ENDCHAR
STARTCHAR paragraph
ENCODING 182
SWIDTH 456 0
DWIDTH 7 0
BBX 7 14 0 -3
BITMAP
3E
7E
F4
F4
F4
74
74
14
14
14
14
14
14
14
ENDCHAR
STARTCHAR periodcentered
ENCODING 183
SWIDTH 228 0
DWIDTH 4 0
BBX 2 2 1 5
BITMAP
C0
C0
ENDCHAR
STARTCHAR cedilla
ENCODING 184
SWIDTH 272 0
DWIDTH 4 0
BBX 3 3 1 -3
BITMAP
80
E0
C0
ENDCHAR
STARTCHAR onesuperior
ENCODING 185
SWIDTH 272 0
DWIDTH 4 0
BBX 3 7 1 5
BITMAP
C0
C0
40
40
40
40
E0
ENDCHAR
STARTCHAR ordmasculine
ENCODING 186
SWIDTH 298 0
DWIDTH 5 0
BBX 5 6 0 6
BITMAP
70
D8
D8
D8
D8
70
ENDCHAR
STARTCHAR guillemotright
ENCODING 187
SWIDTH 456 0
DWIDTH 7 0
BBX 7 7 0 2
BITMAP
D8
6C
24
36
24
6C
D8
ENDCHAR
STARTCHAR onequarter
ENCODING 188
SWIDTH 684 0
DWIDTH 11 0
BBX 10 11 1 0
BITMAP
C100
C100
4200
4400
4500
E980
0A80
1280
17C0
2080
4080
ENDCHAR
STARTCHAR onehalf
ENCODING 189
SWIDTH 684 0
DWIDTH 11 0
BBX 10 11 1 0
BITMAP
C100
C300
4200
4400
E780
EAC0
0880
1080
3100
23C0
43C0
ENDCHAR
STARTCHAR threequarters
ENCODING 190
SWIDTH 684 0
DWIDTH 11 0
BBX 11 11 0 0
BITMAP
7080
5180
2100
1200
D280
75C0
0540
0940
1BE0
1040
2040
ENDCHAR
STARTCHAR questiondown
ENCODING 191
SWIDTH 500 0
DWIDTH 8 0
BBX 6 12 1 -3
BITMAP
30
30
00
30
30
60
E0
C0
CC
CC
FC
78
ENDCHAR
STARTCHAR Agrave
ENCODING 192
SWIDTH 591 0
DWIDTH 9 0
BBX 9 15 0 0
BITMAP
1800
0C00
0000
0000
1C00
1C00
1600
3600
3600
3300
6300
7F00
7F80
C180
C180
ENDCHAR
STARTCHAR Aacute
ENCODING 193
SWIDTH 591 0
DWIDTH 9 0
BBX 9 15 0 0
BITMAP
0600
0C00
0000
0000
1C00
1C00
3600
3600
3600
3600
6300
7F00
FF80
C180
C180
ENDCHAR
STARTCHAR Acircumflex
ENCODING 194
SWIDTH 591 0
DWIDTH 9 0
BBX 9 15 0 0
BITMAP
0C00
1600
0000
0000
1C00
1C00
1600
3600
3600
3300
6300
7F00
7F80
C180
C180
ENDCHAR
STARTCHAR Atilde
ENCODING 195
SWIDTH 591 0
DWIDTH 9 0
BBX 9 15 0 0
BITMAP
1A00
3E00
2400
0000
1C00
1C00
1600
3600
3600
3300
6300
7F00
7F80
C180
C180
ENDCHAR
STARTCHAR Adieresis
ENCODING 196
SWIDTH 591 0
DWIDTH 9 0
BBX 9 15 0 0
BITMAP
1600
1600
0000
0000
1C00
1C00
1600
3600
3600
3300
6300
7F00
7F80
C180
C180
ENDCHAR
STARTCHAR Aring
ENCODING 197
SWIDTH 591 0
DWIDTH 9 0
BBX 9 15 0 0
BITMAP
0C00
1400
0C00
0000
1C00
1C00
1600
3600
3600
3300
6300
7F00
7F80
C180
C180
ENDCHAR
STARTCHAR AE
ENCODING 198
SWIDTH 819 0
DWIDTH 13 0
BBX 12 11 0 0
BITMAP
0FF0
0FF0
1E00
1E00
33F0
33F0
2300
7F00
7F80
C1F0
C1F0
ENDCHAR
STARTCHAR Ccedilla
ENCODING 199
SWIDTH 591 0
DWIDTH 9 0
BBX 8 14 1 -3
BITMAP
3C
7E
C3
C3
C0
C0
C0
C3
C3
7E
3C
18
0C
38
ENDCHAR
STARTCHAR Egrave
ENCODING 200
SWIDTH 546 0
DWIDTH 9 0
BBX 7 15 1 0
BITMAP
60
30
00
00
FE
FE
C0
C0
FC
FC
C0
C0
C0
FE
FE
ENDCHAR
STARTCHAR Eacute
ENCODING 201
SWIDTH 546 0
DWIDTH 9 0
BBX 7 15 1 0
BITMAP
0C
30
00
00
FE
FE
C0
C0
FC
FC
C0
C0
C0
FE
FE
ENDCHAR
STARTCHAR Ecircumflex
ENCODING 202
SWIDTH 546 0
DWIDTH 9 0
BBX 7 15 1 0
BITMAP
30
28
6C
00
FE
FE
C0
C0
FC
FC
C0
C0
C0
FE
FE
ENDCHAR
STARTCHAR Edieresis
ENCODING 203
SWIDTH 546 0
DWIDTH 9 0
BBX 7 15 1 0
BITMAP
6C
6C
00
00
FE
FE
C0
C0
FC
FC
C0
C0
C0
FE
FE
ENDCHAR
STARTCHAR Igrave
ENCODING 204
SWIDTH 228 0
DWIDTH 4 0
BBX 3 15 0 0
BITMAP
C0
60
00
00
60
60
60
60
60
60
60
60
60
60
60
ENDCHAR
STARTCHAR Iacute
ENCODING 205
SWIDTH 228 0
DWIDTH 4 0
BBX 3 15 1 0
BITMAP
60
C0
00
00
C0
C0
C0
C0
C0
C0
C0
C0
C0
C0
C0
ENDCHAR
STARTCHAR Icircumflex
ENCODING 206
SWIDTH 228 0
DWIDTH 4 0
BBX 4 15 0 0
BITMAP
60
F0
00
00
60
60
60
60
60
60
60
60
60
60
60
ENDCHAR
STARTCHAR Idieresis
ENCODING 207
SWIDTH 228 0
DWIDTH 4 0
BBX 4 15 0 0
BITMAP
B0
B0
00
00
60
60
60
60
60
60
60
60
60
60
60
ENDCHAR
STARTCHAR Eth
ENCODING 208
SWIDTH 591 0
DWIDTH 9 0
BBX 9 11 0 0
BITMAP
7E00
7F00
6300
6180
F980
F980
6180
6180
6300
7F00
7E00
ENDCHAR
STARTCHAR Ntilde
ENCODING 209
SWIDTH 591 0
DWIDTH 9 0
BBX 8 15 1 0
BITMAP
34
7C
48
00
C3
E3
E3
F3
F3
DB
DB
CF
CF
C7
C7
ENDCHAR
STARTCHAR Ograve
ENCODING 210
SWIDTH 638 0
DWIDTH 10 0
BBX 9 15 1 0
BITMAP
3000
1800
0000
0000
3C00
7F00
C300
C300
C180
C180
C180
C300
C300
7F00
3C00
ENDCHAR
STARTCHAR Oacute
ENCODING 211
SWIDTH 638 0
DWIDTH 10 0
BBX 9 15 1 0
BITMAP
0C00
1800
0000
0000
3C00
7F00
C300
C300
C180
C180
C180
C300
C300
7F00
3C00
ENDCHAR
STARTCHAR Ocircumflex
ENCODING 212
SWIDTH 638 0
DWIDTH 10 0
BBX 9 15 1 0
BITMAP
1800
1C00
2400
0000
3C00
7F00
C300
C300
C180
C180
C180
C300
C300
7F00
3C00
ENDCHAR
STARTCHAR Otilde
ENCODING 213
SWIDTH 638 0
DWIDTH 10 0
BBX 9 15 1 0
BITMAP
3E00
7C00
0000
0000
3C00
7F00
C300
C300
C180
C180
C180
C300
C300
7F00
3C00
ENDCHAR
STARTCHAR Odieresis
ENCODING 214
SWIDTH 638 0
DWIDTH 10 0
BBX 9 15 1 0
BITMAP
3400
3400
0000
0000
3C00
7F00
C300
C300
C180
C180
C180
C300
C300
7F00
3C00
ENDCHAR
STARTCHAR multiply
ENCODING 215
SWIDTH 479 0
DWIDTH 8 0
BBX 7 7 0 1
BITMAP
42
E6
3C
18
3C
66
C6
ENDCHAR
STARTCHAR Oslash
ENCODING 216
SWIDTH 638 0
DWIDTH 10 0
BBX 9 12 1 0
BITMAP
0180
3D00
7F00
C700
C700
C980
D980
D180
F300
E300
7F00
FC00
ENDCHAR
STARTCHAR Ugrave
ENCODING 217
SWIDTH 591 0
DWIDTH 9 0
BBX 8 15 1 0
BITMAP
30
18
00
00
C7
C7
C7
C7
C7
C7
C7
C7
C6
7E
3C
ENDCHAR
STARTCHAR Uacute
ENCODING 218
SWIDTH 591 0
DWIDTH 9 0
BBX 7 15 1 0
BITMAP
0C
18
00
00
C6
C6
C6
C6
C6
C6
C6
C6
C6
FE
7C
ENDCHAR
STARTCHAR Ucircumflex
ENCODING 219
SWIDTH 591 0
DWIDTH 9 0
BBX 8 15 1 0
BITMAP
18
2C
00
00
C7
C7
C7
C7
C7
C7
C7
C7
C6
7E
3C
ENDCHAR
STARTCHAR Udieresis
ENCODING 220
SWIDTH 591 0
DWIDTH 9 0
BBX 8 15 1 0
BITMAP
2C
2C
00
00
C7
C7
C7
C7
C7
C7
C7
C7
C6
7E
3C
ENDCHAR
STARTCHAR Yacute
ENCODING 221
SWIDTH 546 0
DWIDTH 9 0
BBX 9 15 0 0
BITMAP
0600
1800
0000
0000
C380
6300
6300
3600
3600
1C00
1C00
1800
1800
1800
1800
ENDCHAR
STARTCHAR Thorn
ENCODING 222
SWIDTH 546 0
DWIDTH 9 0
BBX 7 11 1 0
BITMAP
C0
C0
FC
FE
C6
C6
C6
FE
F8
C0
C0
ENDCHAR
STARTCHAR germandbls
ENCODING 223
SWIDTH 500 0
DWIDTH 8 0
BBX 7 12 1 0
BITMAP
78
FC
CC
CC
CC
F8
FC
CC
C6
CC
FC
F8
ENDCHAR
STARTCHAR agrave
ENCODING 224
SWIDTH 456 0
DWIDTH 7 0
BBX 7 12 0 0
BITMAP
70
18
00
38
7C
6C
1C
7C
EC
CC
FE
76
ENDCHAR
STARTCHAR aacute
ENCODING 225
SWIDTH 456 0
DWIDTH 7 0
BBX 7 12 0 0
BITMAP
1C
30
00
38
7C
6C
1C
7C
EC
CC
FE
76
ENDCHAR
STARTCHAR acircumflex
ENCODING 226
SWIDTH 456 0
DWIDTH 7 0
BBX 7 12 0 0
BITMAP
38
28
44
38
7C
6C
1C
7C
EC
CC
FE
76
ENDCHAR
STARTCHAR atilde
ENCODING 227
SWIDTH 456 0
DWIDTH 7 0
BBX 7 12 0 0
BITMAP
64
7C
48
38
7C
6C
1C
7C
EC
CC
FE
76
ENDCHAR
STARTCHAR adieresis
ENCODING 228
SWIDTH 456 0
DWIDTH 7 0
BBX 7 12 0 0
BITMAP
6C
6C
00
38
7C
6C
1C
7C
EC
CC
FE
76
ENDCHAR
STARTCHAR aring
ENCODING 229
SWIDTH 456 0
DWIDTH 7 0
BBX 7 12 0 0
BITMAP
38
38
00
38
7C
6C
1C
7C
EC
CC
FE
76
ENDCHAR
STARTCHAR ae
ENCODING 230
SWIDTH 729 0
DWIDTH 12 0
BBX 10 9 1 0
BITMAP
7F80
FFC0
CCC0
3FC0
FFC0
CC00
CCC0
FFC0
F780
ENDCHAR
STARTCHAR ccedilla
ENCODING 231
SWIDTH 456 0
DWIDTH 7 0
BBX 6 12 1 -3
BITMAP
78
F8
CC
C0
C0
CC
CC
F8
70
30
10
70
ENDCHAR
STARTCHAR egrave
ENCODING 232
SWIDTH 456 0
DWIDTH 7 0
BBX 6 12 1 0
BITMAP
E0
30
00
70
F8
CC
FC
FC
C0
CC
F8
78
ENDCHAR
STARTCHAR eacute
ENCODING 233
SWIDTH 456 0
DWIDTH 7 0
BBX 6 12 1 0
BITMAP
18
20
00
70
F8
CC
FC
FC
C0
CC
F8
78
ENDCHAR
STARTCHAR ecircumflex
ENCODING 234
SWIDTH 456 0
DWIDTH 7 0
BBX 6 12 1 0
BITMAP
30
58
80
70
F8
CC
FC
FC
C0
CC
F8
78
ENDCHAR
STARTCHAR edieresis
ENCODING 235
SWIDTH 456 0
DWIDTH 7 0
BBX 6 12 1 0
BITMAP
D8
D8
00
70
F8
CC
FC
FC
C0
CC
F8
78
ENDCHAR
STARTCHAR igrave
ENCODING 236
SWIDTH 228 0
DWIDTH 4 0
BBX 3 12 0 0
BITMAP
C0
60
00
60
60
60
60
60
60
60
60
60
ENDCHAR
STARTCHAR iacute
ENCODING 237
SWIDTH 228 0
DWIDTH 4 0
BBX 3 12 1 0
BITMAP
60
C0
00
C0
C0
C0
C0
C0
C0
C0
C0
C0
ENDCHAR
STARTCHAR icircumflex
ENCODING 238
SWIDTH 228 0
DWIDTH 4 0
BBX 4 12 0 0
BITMAP
60
B0
00
60
60
60
60
60
60
60
60
60
ENDCHAR
STARTCHAR idieresis
ENCODING 239
SWIDTH 228 0
DWIDTH 4 0
BBX 4 12 0 0
BITMAP
B0
B0
00
60
60
60
60
60
60
60
60
60
ENDCHAR
STARTCHAR eth
ENCODING 240
SWIDTH 500 0
DWIDTH 8 0
BBX 6 12 1 0
BITMAP
70
7C
18
7C
FC
CC
CC
CC
CC
CC
FC
78
ENDCHAR
STARTCHAR ntilde
ENCODING 241
SWIDTH 500 0
DWIDTH 8 0
BBX 6 12 1 0
BITMAP
64
F8
88
F8
FC
CC
CC
CC
CC
CC
CC
CC
ENDCHAR
STARTCHAR ograve
ENCODING 242
SWIDTH 500 0
DWIDTH 8 0
BBX 6 12 1 0
BITMAP
60
30
00
78
FC
CC
CC
CC
CC
CC
FC
78
ENDCHAR
STARTCHAR oacute
ENCODING 243
SWIDTH 500 0
DWIDTH 8 0
BBX 6 12 1 0
BITMAP
18
30
00
78
FC
CC
CC
CC
CC
CC
FC
78
ENDCHAR
STARTCHAR ocircumflex
ENCODING 244
SWIDTH 500 0
DWIDTH 8 0
BBX 6 12 1 0
BITMAP
30
78
00
78
FC
CC
CC
CC
CC
CC
FC
78
ENDCHAR
STARTCHAR otilde
ENCODING 245
SWIDTH 500 0
DWIDTH 8 0
BBX 6 12 1 0
BITMAP
64
F8
88
78
FC
CC
CC
CC
CC
CC
FC
78
ENDCHAR
STARTCHAR odieresis
ENCODING 246
SWIDTH 500 0
DWIDTH 8 0
BBX 6 12 1 0
BITMAP
48
48
00
78
FC
CC
CC
CC
CC
CC
FC
78
ENDCHAR
STARTCHAR divide
ENCODING 247
SWIDTH 548 0
DWIDTH 9 0
BBX 7 7 1 1
BITMAP
10
10
FE
FE
00
10
10
ENDCHAR
STARTCHAR oslash
ENCODING 248
SWIDTH 500 0
DWIDTH 8 0
BBX 6 10 1 0
BITMAP
04
7C
FC
CC
DC
FC
EC
EC
FC
F8
ENDCHAR
STARTCHAR ugrave
ENCODING 249
SWIDTH 500 0
DWIDTH 8 0
BBX 6 12 1 0
BITMAP
60
30
00
CC
CC
CC
CC
CC
CC
CC
FC
7C
ENDCHAR
STARTCHAR uacute
ENCODING 250
SWIDTH 500 0
DWIDTH 8 0
BBX 6 12 1 0
BITMAP
18
30
00
CC
CC
CC
CC
CC
CC
CC
FC
7C
ENDCHAR
STARTCHAR ucircumflex
ENCODING 251
SWIDTH 500 0
DWIDTH 8 0
BBX 6 12 1 0
BITMAP
30
48
00
CC
CC
CC
CC
CC
CC
CC
FC
7C
ENDCHAR
STARTCHAR udieresis
ENCODING 252
SWIDTH 500 0
DWIDTH 8 0
BBX 6 12 1 0
BITMAP
48
48
00
CC
CC
CC
CC
CC
CC
CC
FC
7C
ENDCHAR
STARTCHAR yacute
ENCODING 253
SWIDTH 456 0
DWIDTH 7 0
BBX 7 15 0 -3
BITMAP
0C
10
00
C6
66
66
6C
6C
3C
38
38
18
18
70
60
ENDCHAR
STARTCHAR thorn
ENCODING 254
SWIDTH 500 0
DWIDTH 8 0
BBX 6 15 1 -3
BITMAP
C0
C0
C0
F8
FC
CC
CC
CC
CC
CC
FC
F8
C0
C0
C0
ENDCHAR
STARTCHAR ydieresis
ENCODING 255
SWIDTH 456 0
DWIDTH 7 0
BBX 7 15 0 -3
BITMAP
6C
6C
00
C6
66
66
6C
6C
3C
38
38
18
18
70
60
ENDCHAR
STARTCHAR Amacron
ENCODING 256
SWIDTH 591 0
DWIDTH 9 0
BBX 9 14 0 0
BITMAP
1E00
1E00
0000
1C00
1C00
1600
3600
3600
3300
6300
7F00
7F80
C180
C180
ENDCHAR
STARTCHAR amacron
ENCODING 257
SWIDTH 456 0
DWIDTH 7 0
BBX 7 11 0 0
BITMAP
7C
7C
38
7C
6C
1C
7C
EC
CC
FE
76
ENDCHAR
STARTCHAR Abreve
ENCODING 258
SWIDTH 591 0
DWIDTH 9 0
BBX 9 15 0 0
BITMAP
1200
1C00
0000
0000
1C00
1C00
1600
3600
3600
3300
6300
7F00
7F80
C180
C180
ENDCHAR
STARTCHAR abreve
ENCODING 259
SWIDTH 456 0
DWIDTH 7 0
BBX 7 12 0 0
BITMAP
6C
38
10
38
7C
6C
1C
7C
EC
CC
FE
76
ENDCHAR
STARTCHAR Aogonek
ENCODING 260
SWIDTH 591 0
DWIDTH 9 0
BBX 10 14 0 -3
BITMAP
1C00
1C00
1600
3600
3600
3300
6300
7F00
7F80
C180
C180
0080
0180
00C0
ENDCHAR
STARTCHAR aogonek
ENCODING 261
SWIDTH 456 0
DWIDTH 7 0
BBX 8 12 0 -3
BITMAP
38
7C
6C
1C
7C
EC
CC
FE
76
06
06
07
ENDCHAR
STARTCHAR Cacute
ENCODING 262
SWIDTH 591 0
DWIDTH 9 0
BBX 8 15 1 0
BITMAP
0C
18
00
00
3C
7E
C7
C3
C0
C0
C0
C3
C3
7E
3C
ENDCHAR
STARTCHAR cacute
ENCODING 263
SWIDTH 456 0
DWIDTH 7 0
BBX 6 12 1 0
BITMAP
18
20
00
78
F8
CC
C0
C0
C0
CC
F8
78
ENDCHAR
STARTCHAR Ccircumflex
ENCODING 264
SWIDTH 591 0
DWIDTH 9 0
BBX 8 15 1 0
BITMAP
18
3C
24
00
3C
7E
C7
C3
C0
C0
C0
C3
C3
7E
3C
ENDCHAR
STARTCHAR ccircumflex
ENCODING 265
SWIDTH 456 0
DWIDTH 7 0
BBX 6 12 1 0
BITMAP
30
78
00
78
F8
CC
C0
C0
C0
CC
F8
78
ENDCHAR
STARTCHAR Cdotaccent
ENCODING 266
SWIDTH 591 0
DWIDTH 9 0
BBX 8 15 1 0
BITMAP
18
18
00
00
3C
7E
C7
C3
C0
C0
C0
C3
C3
7E
3C
ENDCHAR
STARTCHAR cdotaccent
ENCODING 267
SWIDTH 456 0
DWIDTH 7 0
BBX 6 12 1 0
BITMAP
30
30
00
78
F8
CC
C0
C0
C0
CC
F8
78
ENDCHAR
STARTCHAR Ccaron
ENCODING 268
SWIDTH 591 0
DWIDTH 9 0
BBX 8 15 1 0
BITMAP
2C
18
00
00
3C
7E
C7
C3
C0
C0
C0
C3
C3
7E
3C
ENDCHAR
STARTCHAR ccaron
ENCODING 269
SWIDTH 456 0
DWIDTH 7 0
BBX 6 12 1 0
BITMAP
58
30
00
70
F8
CC
CC
C0
C0
CC
F8
78
ENDCHAR
STARTCHAR Dcaron
ENCODING 270
SWIDTH 591 0
DWIDTH 9 0
BBX 8 15 1 0
BITMAP
48
30
00
00
FC
FE
C6
C3
C3
C3
C3
C3
C6
FE
FC
ENDCHAR
STARTCHAR dcaron
ENCODING 271
SWIDTH 588 0
DWIDTH 9 0
BBX 9 12 1 0
BITMAP
0C00
0D80
0D80
7D00
FD00
CC00
CC00
CC00
CC00
CC00
FC00
7C00
ENDCHAR
STARTCHAR Dcroat
ENCODING 272
SWIDTH 591 0
DWIDTH 9 0
BBX 9 11 0 0
BITMAP
7E00
7F00
6300
6180
F980
F980
6180
6180
6300
7F00
7E00
ENDCHAR
STARTCHAR dcroat
ENCODING 273
SWIDTH 503 0
DWIDTH 8 0
BBX 7 12 1 0
BITMAP
0C
3E
3E
7C
FC
CC
CC
CC
CC
CC
FC
7C
ENDCHAR
STARTCHAR Emacron
ENCODING 274
SWIDTH 546 0
DWIDTH 9 0
BBX 7 14 1 0
BITMAP
78
78
00
FE
FE
C0
C0
FC
FC
C0
C0
C0
FE
FE
ENDCHAR
STARTCHAR emacron
ENCODING 275
SWIDTH 456 0
DWIDTH 7 0
BBX 6 11 1 0
BITMAP
78
78
70
F8
CC
FC
FC
C0
CC
F8
78
ENDCHAR
STARTCHAR Ebreve
ENCODING 276
SWIDTH 546 0
DWIDTH 9 0
BBX 7 15 1 0
BITMAP
6C
38
00
00
FE
FE
C0
C0
FC
FC
C0
C0
C0
FE
FE
ENDCHAR
STARTCHAR ebreve
ENCODING 277
SWIDTH 456 0
DWIDTH 7 0
BBX 6 12 1 0
BITMAP
58
70
20
70
F8
CC
CC
FC
C0
CC
F8
78
ENDCHAR
STARTCHAR Edotaccent
ENCODING 278
SWIDTH 546 0
DWIDTH 9 0
BBX 7 15 1 0
BITMAP
10
10
00
00
FE
FE
C0
C0
FC
FC
C0
C0
C0
FE
FE
ENDCHAR
STARTCHAR edotaccent
ENCODING 279
SWIDTH 456 0
DWIDTH 7 0
BBX 6 12 1 0
BITMAP
30
30
00
70
F8
CC
FC
FC
C0
CC
F8
78
ENDCHAR
STARTCHAR Eogonek
ENCODING 280
SWIDTH 546 0
DWIDTH 9 0
BBX 8 14 1 -3
BITMAP
FE
FE
C0
C0
FC
FC
C0
C0
C0
FE
FE
06
06
07
ENDCHAR
STARTCHAR eogonek
ENCODING 281
SWIDTH 456 0
DWIDTH 7 0
BBX 6 12 1 -3
BITMAP
70
F8
CC
FC
FC
C0
CC
FC
78
30
30
38
ENDCHAR
STARTCHAR Ecaron
ENCODING 282
SWIDTH 546 0
DWIDTH 9 0
BBX 7 15 1 0
BITMAP
6C
38
10
00
FE
FE
C0
C0
FC
FC
C0
C0
C0
FE
FE
ENDCHAR
STARTCHAR ecaron
ENCODING 283
SWIDTH 456 0
DWIDTH 7 0
BBX 6 12 1 0
BITMAP
D8
30
00
70
F8
CC
FC
FC
C0
CC
F8
78
ENDCHAR
STARTCHAR Gcircumflex
ENCODING 284
SWIDTH 638 0
DWIDTH 10 0
BBX 8 15 1 0
BITMAP
18
1C
24
00
3C
7F
C3
C3
C0
CF
CF
C3
C3
7F
3D
ENDCHAR
STARTCHAR gcircumflex
ENCODING 285
SWIDTH 500 0
DWIDTH 8 0
BBX 8 15 0 -3
BITMAP
18
3C
03
3E
7E
66
66
7E
3C
60
7E
7F
C3
FF
7E
ENDCHAR
STARTCHAR Gbreve
ENCODING 286
SWIDTH 638 0
DWIDTH 10 0
BBX 8 15 1 0
BITMAP
24
1C
00
00
3C
7F
C3
C3
C0
CF
CF
C3
C3
7F
3D
ENDCHAR
STARTCHAR gbreve
ENCODING 287
SWIDTH 500 0
DWIDTH 8 0
BBX 8 15 0 -3
BITMAP
24
3C
18
3F
7E
66
66
66
3C
60
7E
7F
C3
FF
7E
ENDCHAR
STARTCHAR Gdotaccent
ENCODING 288
SWIDTH 638 0
DWIDTH 10 0
BBX 8 15 1 0
BITMAP
18
18
00
00
3C
7F
C3
C3
C0
CF
CF
C3
C3
7F
3D
ENDCHAR
STARTCHAR gdotaccent
ENCODING 289
SWIDTH 500 0
DWIDTH 8 0
BBX 8 15 0 -3
BITMAP
18
18
03
3E
7E
66
66
7E
3C
60
7E
7F
C3
FF
7E
ENDCHAR
STARTCHAR Gcommaaccent
ENCODING 290
SWIDTH 638 0
DWIDTH 10 0
BBX 8 15 1 -4
BITMAP
3C
7F
C3
C3
C0
CF
CF
C3
C3
7F
3D
00
18
18
18
ENDCHAR
STARTCHAR gcommaaccent
ENCODING 291
SWIDTH 500 0
DWIDTH 8 0
BBX 8 17 0 -3
BITMAP
08
10
18
1B
03
3E
7E
66
66
7E
3C
60
7E
7F
C3
FF
7E
ENDCHAR
STARTCHAR Hcircumflex
ENCODING 292
SWIDTH 591 0
DWIDTH 9 0
BBX 8 15 1 0
BITMAP
18
2C
00
00
C7
C7
C7
C7
FF
FF
C7
C7
C7
C7
C7
ENDCHAR
STARTCHAR hcircumflex
ENCODING 293
SWIDTH 500 0
DWIDTH 8 0
BBX 7 15 0 0
BITMAP
60
F0
00
60
60
60
7C
7E
66
66
66
66
66
66
66
ENDCHAR
STARTCHAR Hbar
ENCODING 294
SWIDTH 591 0
DWIDTH 9 0
BBX 9 11 0 0
BITMAP
6380
FF80
FF80
6380
7F80
7F80
6380
6380
6380
6380
6380
ENDCHAR
STARTCHAR hbar
ENCODING 295
SWIDTH 500 0
DWIDTH 8 0
BBX 7 12 0 0
BITMAP
60
F8
F8
7C
7E
66
66
66
66
66
66
66
ENDCHAR
STARTCHAR Itilde
ENCODING 296
SWIDTH 228 0
DWIDTH 4 0
BBX 6 15 -1 0
BITMAP
6C
F8
98
00
30
30
30
30
30
30
30
30
30
30
30
ENDCHAR
STARTCHAR itilde
ENCODING 297
SWIDTH 228 0
DWIDTH 4 0
BBX 6 12 -1 0
BITMAP
6C
F8
98
30
30
30
30
30
30
30
30
30
ENDCHAR
STARTCHAR Imacron
ENCODING 298
SWIDTH 228 0
DWIDTH 4 0
BBX 4 14 0 0
BITMAP
F0
F0
00
60
60
60
60
60
60
60
60
60
60
60
ENDCHAR
STARTCHAR imacron
ENCODING 299
SWIDTH 228 0
DWIDTH 4 0
BBX 4 11 0 0
BITMAP
F0
F0
60
60
60
60
60
60
60
60
60
ENDCHAR
STARTCHAR Ibreve
ENCODING 300
SWIDTH 228 0
DWIDTH 4 0
BBX 4 15 0 0
BITMAP
90
E0
00
00
60
60
60
60
60
60
60
60
60
60
60
ENDCHAR
STARTCHAR ibreve
ENCODING 301
SWIDTH 228 0
DWIDTH 4 0
BBX 4 12 0 0
BITMAP
90
F0
60
60
60
60
60
60
60
60
60
60
ENDCHAR
STARTCHAR Iogonek
ENCODING 302
SWIDTH 228 0
DWIDTH 4 0
BBX 2 14 1 -3
BITMAP
C0
C0
C0
C0
C0
C0
C0
C0
C0
C0
C0
C0
80
C0
ENDCHAR
STARTCHAR iogonek
ENCODING 303
SWIDTH 228 0
DWIDTH 4 0
BBX 2 15 1 -3
BITMAP
C0
C0
00
C0
C0
C0
C0
C0
C0
C0
C0
C0
80
80
C0
ENDCHAR
STARTCHAR Idotaccent
ENCODING 304
SWIDTH 228 0
DWIDTH 4 0
BBX 2 15 1 0
BITMAP
C0
C0
00
00
C0
C0
C0
C0
C0
C0
C0
C0
C0
C0
C0
ENDCHAR
STARTCHAR dotlessi
ENCODING 305
SWIDTH 228 0
DWIDTH 4 0
BBX 2 9 1 0
BITMAP
C0
C0
C0
C0
C0
C0
C0
C0
C0
ENDCHAR
STARTCHAR IJ
ENCODING 306
SWIDTH 684 0
DWIDTH 11 0
BBX 9 11 1 0
BITMAP
C180
C180
C180
C180
C180
C180
C180
D980
D980
DF80
CF00
ENDCHAR
STARTCHAR ij
ENCODING 307
SWIDTH 456 0
DWIDTH 7 0
BBX 5 15 1 -3
BITMAP
C8
C8
00
C8
C8
C8
C8
C8
C8
C8
C8
C8
08
38
38
ENDCHAR
STARTCHAR Jcircumflex
ENCODING 308
SWIDTH 456 0
DWIDTH 7 0
BBX 8 15 0 0
BITMAP
04
1B
00
00
0C
0C
0C
0C
0C
0C
0C
CC
CC
FC
78
ENDCHAR
STARTCHAR jcircumflex
ENCODING 309
SWIDTH 228 0
DWIDTH 4 0
BBX 5 15 -1 -3
BITMAP
30
58
00
30
30
30
30
30
30
30
30
30
30
F0
E0
ENDCHAR
STARTCHAR Kcommaaccent
ENCODING 310
SWIDTH 591 0
DWIDTH 9 0
BBX 8 15 1 -4
BITMAP
C3
C6
CE
CC
D8
FC
EC
EE
C6
C7
C3
00
18
18
10
ENDCHAR
STARTCHAR kcommaaccent
ENCODING 311
SWIDTH 456 0
DWIDTH 7 0
BBX 6 16 1 -4
BITMAP
C0
C0
C0
CC
D8
D0
F0
F0
D8
D8
DC
CC
00
30
30
20
ENDCHAR
STARTCHAR kgreenlandic
ENCODING 312
SWIDTH 457 0
DWIDTH 7 0
BBX 6 9 1 0
BITMAP
CC
D8
D0
F0
F0
D8
D8
DC
CC
ENDCHAR
STARTCHAR Lacute
ENCODING 313
SWIDTH 500 0
DWIDTH 8 0
BBX 7 15 1 0
BITMAP
60
C0
00
00
C0
C0
C0
C0
C0
C0
C0
C0
C0
FE
FE
ENDCHAR
STARTCHAR lacute
ENCODING 314
SWIDTH 228 0
DWIDTH 4 0
BBX 3 15 1 0
BITMAP
60
C0
00
C0
C0
C0
C0
C0
C0
C0
C0
C0
C0
C0
C0
ENDCHAR
STARTCHAR Lcommaaccent
ENCODING 315
SWIDTH 500 0
DWIDTH 8 0
BBX 7 15 1 -4
BITMAP
C0
C0
C0
C0
C0
C0
C0
C0
C0
FE
FE
00
30
30
10
ENDCHAR
STARTCHAR lcommaaccent
ENCODING 316
SWIDTH 228 0
DWIDTH 4 0
BBX 2 16 1 -4
BITMAP
C0
C0
C0
C0
C0
C0
C0
C0
C0
C0
C0
C0
00
C0
C0
C0
ENDCHAR
STARTCHAR Lcaron
ENCODING 317
SWIDTH 500 0
DWIDTH 8 0
BBX 7 11 1 0
BITMAP
CE
CE
C4
C4
C8
C0
C0
C0
C0
FE
FE
ENDCHAR
STARTCHAR lcaron
ENCODING 318
SWIDTH 315 0
DWIDTH 5 0
BBX 5 12 1 0
BITMAP
C0
D8
D8
D0
D0
C0
C0
C0
C0
C0
C0
C0
ENDCHAR
STARTCHAR Ldot
ENCODING 319
SWIDTH 500 0
DWIDTH 8 0
BBX 7 11 1 0
BITMAP
C0
C0
CC
CC
C0
C0
C0
C0
C0
FE
FE
ENDCHAR
STARTCHAR ldot
ENCODING 320
SWIDTH 333 0
DWIDTH 5 0
BBX 4 12 1 0
BITMAP
C0
C0
C0
C0
C0
F0
F0
C0
C0
C0
C0
C0
ENDCHAR
STARTCHAR Lslash
ENCODING 321
SWIDTH 500 0
DWIDTH 8 0
BBX 8 11 0 0
BITMAP
60
60
68
78
70
60
E0
E0
60
7F
7F
ENDCHAR
STARTCHAR lslash
ENCODING 322
SWIDTH 228 0
DWIDTH 4 0
BBX 4 12 0 0
BITMAP
60
60
60
60
70
70
60
E0
E0
60
60
60
ENDCHAR
STARTCHAR Nacute
ENCODING 323
SWIDTH 591 0
DWIDTH 9 0
BBX 8 15 1 0
BITMAP
0C
18
00
00
C3
E3
E3
F3
F3
DB
DB
CF
CF
C7
C7
ENDCHAR
STARTCHAR nacute
ENCODING 324
SWIDTH 500 0
DWIDTH 8 0
BBX 6 12 1 0
BITMAP
18
30
00
F8
FC
CC
CC
CC
CC
CC
CC
CC
ENDCHAR
STARTCHAR Ncommaaccent
ENCODING 325
SWIDTH 591 0
DWIDTH 9 0
BBX 8 15 1 -4
BITMAP
C3
E3
E3
F3
F3
DB
DB
CF
CF
C7
C7
00
18
18
10
ENDCHAR
STARTCHAR ncommaaccent
ENCODING 326
SWIDTH 500 0
DWIDTH 8 0
BBX 6 13 1 -4
BITMAP
F8
FC
CC
CC
CC
CC
CC
CC
CC
00
30
30
10
ENDCHAR
STARTCHAR Ncaron
ENCODING 327
SWIDTH 591 0
DWIDTH 9 0
BBX 8 15 1 0
BITMAP
2C
18
00
00
C3
E3
E3
F3
F3
DB
DB
CF
CF
C7
C7
ENDCHAR
STARTCHAR ncaron
ENCODING 328
SWIDTH 500 0
DWIDTH 8 0
BBX 6 12 1 0
BITMAP
78
30
00
F8
FC
CC
CC
CC
CC
CC
CC
CC
ENDCHAR
STARTCHAR napostrophe
ENCODING 329
SWIDTH 675 0
DWIDTH 11 0
BBX 9 11 1 0
BITMAP
C000
C000
D700
1F80
1980
1980
1980
1980
1980
1980
1980
ENDCHAR
STARTCHAR Eng
ENCODING 330
SWIDTH 592 0
DWIDTH 9 0
BBX 8 14 1 -3
BITMAP
C3
E3
E3
F3
F3
DB
DB
CF
CF
C7
C7
03
0E
0E
ENDCHAR
STARTCHAR eng
ENCODING 331
SWIDTH 500 0
DWIDTH 8 0
BBX 6 12 1 -3
BITMAP
F8
FC
CC
CC
CC
CC
CC
CC
CC
0C
1C
1C
ENDCHAR
STARTCHAR Omacron
ENCODING 332
SWIDTH 638 0
DWIDTH 10 0
BBX 9 15 1 0
BITMAP
3C00
3C00
0000
0000
3C00
7F00
C300
C300
C180
C180
C180
C300
C300
7F00
3C00
ENDCHAR
STARTCHAR omacron
ENCODING 333
SWIDTH 500 0
DWIDTH 8 0
BBX 6 11 1 0
BITMAP
78
78
78
FC
CC
CC
CC
CC
CC
FC
78
ENDCHAR
STARTCHAR Obreve
ENCODING 334
SWIDTH 638 0
DWIDTH 10 0
BBX 9 15 1 0
BITMAP
2400
1C00
0000
0000
3C00
7F00
C300
C300
C180
C180
C180
C300
C300
7F00
3C00
ENDCHAR
STARTCHAR obreve
ENCODING 335
SWIDTH 500 0
DWIDTH 8 0
BBX 6 12 1 0
BITMAP
48
78
30
78
FC
CC
CC
CC
CC
CC
FC
78
ENDCHAR
STARTCHAR Ohungarumlaut
ENCODING 336
SWIDTH 638 0
DWIDTH 10 0
BBX 9 15 1 0
BITMAP
1E00
3400
0000
0000
3C00
7F00
C300
C300
C180
C180
C180
C300
C300
7F00
3C00
ENDCHAR
STARTCHAR ohungarumlaut
ENCODING 337
SWIDTH 500 0
DWIDTH 8 0
BBX 6 12 1 0
BITMAP
3C
78
00
78
FC
CC
CC
CC
CC
CC
FC
78
ENDCHAR
STARTCHAR OE
ENCODING 338
SWIDTH 819 0
DWIDTH 13 0
BBX 13 11 0 0
BITMAP
3DF8
7FF8
6380
6380
63F0
E1F0
6380
6380
6380
7FF8
3DF8
ENDCHAR
STARTCHAR oe
ENCODING 339
SWIDTH 773 0
DWIDTH 12 0
BBX 11 9 1 0
BITMAP
7B80
FFC0
CE40
CFE0
CFE0
CC00
CE60
FFC0
7B80
ENDCHAR
STARTCHAR Racute
ENCODING 340
SWIDTH 591 0
DWIDTH 9 0
BBX 8 15 1 0
BITMAP
0C
18
00
00
FE
FF
C3
C3
FE
FC
CC
C6
C6
C7
C3
ENDCHAR
STARTCHAR racute
ENCODING 341
SWIDTH 318 0
DWIDTH 5 0
BBX 4 12 1 0
BITMAP
60
80
00
F0
F0
C0
C0
C0
C0
C0
C0
C0
ENDCHAR
STARTCHAR Rcommaaccent
ENCODING 342
SWIDTH 591 0
DWIDTH 9 0
BBX 8 15 1 -4
BITMAP
FE
FF
C3
C3
FE
FC
CC
C6
C6
C7
C3
00
18
18
10
ENDCHAR
STARTCHAR rcommaaccent
ENCODING 343
SWIDTH 318 0
DWIDTH 5 0
BBX 4 13 1 -4
BITMAP
F0
F0
C0
C0
C0
C0
C0
C0
C0
00
C0
C0
40
ENDCHAR
STARTCHAR Rcaron
ENCODING 344
SWIDTH 591 0
DWIDTH 9 0
BBX 8 15 1 0
BITMAP
2C
38
18
00
FE
FF
C3
C3
FE
FC
CC
C6
C6
C7
C3
ENDCHAR
STARTCHAR rcaron
ENCODING 345
SWIDTH 318 0
DWIDTH 5 0
BBX 5 12 0 0
BITMAP
B0
60
00
78
78
60
60
60
60
60
60
60
ENDCHAR
STARTCHAR Sacute
ENCODING 346
SWIDTH 546 0
DWIDTH 9 0
BBX 8 15 0 0
BITMAP
06
18
00
00
3E
7F
63
60
78
3E
07
E3
63
7F
3E
ENDCHAR
STARTCHAR sacute
ENCODING 347
SWIDTH 456 0
DWIDTH 7 0
BBX 6 12 1 0
BITMAP
18
20
00
78
F8
CC
E0
78
1C
CC
FC
78
ENDCHAR
STARTCHAR Scircumflex
ENCODING 348
SWIDTH 546 0
DWIDTH 9 0
BBX 8 15 0 0
BITMAP
18
14
36
00
3E
7F
63
60
78
3E
07
E3
63
7F
3E
ENDCHAR
STARTCHAR scircumflex
ENCODING 349
SWIDTH 456 0
DWIDTH 7 0
BBX 6 12 1 0
BITMAP
30
58
80
78
F8
CC
E0
78
1C
CC
FC
78
ENDCHAR
STARTCHAR Scedilla
ENCODING 350
SWIDTH 546 0
DWIDTH 9 0
BBX 8 14 0 -3
BITMAP
3E
7F
63
60
78
3E
07
E3
63
7F
3E
18
04
1C
ENDCHAR
STARTCHAR scedilla
ENCODING 351
SWIDTH 456 0
DWIDTH 7 0
BBX 6 12 1 -3
BITMAP
78
F8
CC
E0
78
1C
CC
FC
78
30
10
70
ENDCHAR
STARTCHAR Scaron
ENCODING 352
SWIDTH 546 0
DWIDTH 9 0
BBX 8 15 0 0
BITMAP
36
1C
00
00
3E
7F
63
60
78
3E
07
E3
63
7F
3E
ENDCHAR
STARTCHAR scaron
ENCODING 353
SWIDTH 456 0
DWIDTH 7 0
BBX 6 12 1 0
BITMAP
D8
70
00
70
F8
CC
E0
78
1C
CC
FC
78
ENDCHAR
STARTCHAR Tcommaaccent
ENCODING 354
SWIDTH 500 0
DWIDTH 8 0
BBX 8 15 0 -4
BITMAP
FF
FF
18
18
18
18
18
18
18
18
18
00
18
18
08
ENDCHAR
STARTCHAR tcommaaccent
ENCODING 355
SWIDTH 272 0
DWIDTH 4 0
BBX 4 15 0 -4
BITMAP
60
60
F0
F0
60
60
60
60
60
70
30
00
60
60
20
ENDCHAR
STARTCHAR Tcaron
ENCODING 356
SWIDTH 500 0
DWIDTH 8 0
BBX 8 15 0 0
BITMAP
3C
18
18
00
FF
FF
18
18
18
18
18
18
18
18
18
ENDCHAR
STARTCHAR tcaron
ENCODING 357
SWIDTH 393 0
DWIDTH 6 0
BBX 7 11 0 0
BITMAP
66
66
F6
F4
60
60
60
60
60
70
30
ENDCHAR
STARTCHAR Tbar
ENCODING 358
SWIDTH 500 0
DWIDTH 8 0
BBX 8 11 0 0
BITMAP
FF
FF
18
18
7E
7E
18
18
18
18
18
ENDCHAR
STARTCHAR tbar
ENCODING 359
SWIDTH 272 0
DWIDTH 4 0
BBX 4 11 0 0
BITMAP
60
60
F0
F0
60
F0
F0
60
60
70
30
ENDCHAR
STARTCHAR Utilde
ENCODING 360
SWIDTH 591 0
DWIDTH 9 0
BBX 8 15 1 0
BITMAP
3C
7C
00
00
C7
C7
C7
C7
C7
C7
C7
C7
C6
7E
3C
ENDCHAR
STARTCHAR utilde
ENCODING 361
SWIDTH 500 0
DWIDTH 8 0
BBX 6 12 1 0
BITMAP
64
F8
88
CC
CC
CC
CC
CC
CC
CC
FC
7C
ENDCHAR
STARTCHAR Umacron
ENCODING 362
SWIDTH 591 0
DWIDTH 9 0
BBX 8 15 1 0
BITMAP
3C
3C
00
00
C7
C7
C7
C7
C7
C7
C7
C7
C6
7E
3C
ENDCHAR
STARTCHAR umacron
ENCODING 363
SWIDTH 500 0
DWIDTH 8 0
BBX 6 11 1 0
BITMAP
78
78
CC
CC
CC
CC
CC
CC
CC
FC
7C
ENDCHAR
STARTCHAR Ubreve
ENCODING 364
SWIDTH 591 0
DWIDTH 9 0
BBX 8 15 1 0
BITMAP
24
38
00
00
C7
C7
C7
C7
C7
C7
C7
C7
C6
7E
3C
ENDCHAR
STARTCHAR ubreve
ENCODING 365
SWIDTH 500 0
DWIDTH 8 0
BBX 6 12 1 0
BITMAP
48
78
30
CC
CC
CC
CC
CC
CC
CC
FC
7C
ENDCHAR
STARTCHAR Uring
ENCODING 366
SWIDTH 591 0
DWIDTH 9 0
BBX 8 16 1 0
BITMAP
18
28
28
18
00
C7
C7
C7
C7
C7
C7
C7
C7
C6
7E
3C
ENDCHAR
STARTCHAR uring
ENCODING 367
SWIDTH 500 0
DWIDTH 8 0
BBX 6 12 1 0
BITMAP
30
48
30
CC
CC
CC
CC
CC
CC
CC
FC
7C
ENDCHAR
STARTCHAR Uhungarumlaut
ENCODING 368
SWIDTH 591 0
DWIDTH 9 0
BBX 8 15 1 0
BITMAP
1E
3C
00
00
C7
C7
C7
C7
C7
C7
C7
C7
C6
7E
3C
ENDCHAR
STARTCHAR uhungarumlaut
ENCODING 369
SWIDTH 500 0
DWIDTH 8 0
BBX 6 12 1 0
BITMAP
3C
78
00
CC
CC
CC
CC
CC
CC
CC
FC
7C
ENDCHAR
STARTCHAR Uogonek
ENCODING 370
SWIDTH 591 0
DWIDTH 9 0
BBX 8 14 1 -3
BITMAP
C7
C7
C7
C7
C7
C7
C7
C7
C6
7E
3C
08
18
0C
ENDCHAR
STARTCHAR uogonek
ENCODING 371
SWIDTH 500 0
DWIDTH 8 0
BBX 7 12 1 -3
BITMAP
CC
CC
CC
CC
CC
CC
CC
FC
7C
0C
0C
0E
ENDCHAR
STARTCHAR Wcircumflex
ENCODING 372
SWIDTH 773 0
DWIDTH 12 0
BBX 12 15 0 0
BITMAP
0600
0F00
0000
0000
C710
C730
6730
6F30
6F20
6DE0
69E0
29E0
39E0
38C0
38C0
ENDCHAR
STARTCHAR wcircumflex
ENCODING 373
SWIDTH 638 0
DWIDTH 10 0
BBX 10 12 0 0
BITMAP
0C00
1A00
0000
CCC0
CCC0
4EC0
6E80
7E80
7B80
7380
3300
3300
ENDCHAR
STARTCHAR Ycircumflex
ENCODING 374
SWIDTH 546 0
DWIDTH 9 0
BBX 9 15 0 0
BITMAP
1800
3600
0000
0000
C380
6300
6300
3600
3600
1C00
1C00
1800
1800
1800
1800
ENDCHAR
STARTCHAR ycircumflex
ENCODING 375
SWIDTH 456 0
DWIDTH 7 0
BBX 7 15 0 -3
BITMAP
38
6C
00
C6
66
66
6C
6C
3C
38
38
18
18
70
60
ENDCHAR
STARTCHAR Ydieresis
ENCODING 376
SWIDTH 546 0
DWIDTH 9 0
BBX 9 15 0 0
BITMAP
3600
3600
0000
0000
C380
6300
6300
3600
3600
1C00
1C00
1800
1800
1800
1800
ENDCHAR
STARTCHAR Zacute
ENCODING 377
SWIDTH 500 0
DWIDTH 8 0
BBX 8 15 0 0
BITMAP
0C
18
00
00
7F
7E
0E
0C
1C
18
38
30
60
7F
FF
ENDCHAR
STARTCHAR zacute
ENCODING 378
SWIDTH 410 0
DWIDTH 7 0
BBX 6 12 0 0
BITMAP
1C
30
00
FC
FC
18
18
30
30
60
7C
FC
ENDCHAR
STARTCHAR Zdotaccent
ENCODING 379
SWIDTH 500 0
DWIDTH 8 0
BBX 8 15 0 0
BITMAP
18
18
00
00
7F
7E
0E
0C
1C
18
38
30
60
7F
FF
ENDCHAR
STARTCHAR zdotaccent
ENCODING 380
SWIDTH 410 0
DWIDTH 7 0
BBX 6 12 0 0
BITMAP
30
30
00
FC
FC
18
18
30
30
60
7C
FC
ENDCHAR
STARTCHAR Zcaron
ENCODING 381
SWIDTH 500 0
DWIDTH 8 0
BBX 8 15 0 0
BITMAP
24
18
00
00
7F
7E
0E
0C
1C
18
38
30
60
7F
FF
ENDCHAR
STARTCHAR zcaron
ENCODING 382
SWIDTH 410 0
DWIDTH 7 0
BBX 6 12 0 0
BITMAP
68
30
00
FC
FC
18
18
30
30
60
7C
FC
ENDCHAR
STARTCHAR longs
ENCODING 383
SWIDTH 228 0
DWIDTH 4 0
BBX 4 12 0 0
BITMAP
30
70
60
E0
E0
60
60
60
60
60
60
60
ENDCHAR
STARTCHAR florin
ENCODING 402
SWIDTH 456 0
DWIDTH 7 0
BBX 7 15 0 -3
BITMAP
0E
0E
18
18
3E
3C
18
18
18
30
30
30
30
F0
E0
ENDCHAR
STARTCHAR Aringacute
ENCODING 506
SWIDTH 610 0
DWIDTH 10 0
BBX 9 16 0 0
BITMAP
0600
0C00
0C00
1400
1400
1C00
1E00
1600
3600
3600
3300
6300
7F00
7F80
C180
C180
ENDCHAR
STARTCHAR aringacute
ENCODING 507
SWIDTH 500 0
DWIDTH 8 0
BBX 7 15 0 0
BITMAP
0C
18
00
38
28
38
38
7C
6C
1C
7C
EC
CC
FE
76
ENDCHAR
STARTCHAR AEacute
ENCODING 508
SWIDTH 819 0
DWIDTH 13 0
BBX 12 15 0 0
BITMAP
0180
0700
0000
0000
0FF0
0FF0
1E00
1E00
33F0
33F0
2300
7F00
7F80
C1F0
C1F0
ENDCHAR
STARTCHAR aeacute
ENCODING 509
SWIDTH 729 0
DWIDTH 12 0
BBX 10 12 1 0
BITMAP
0600
0C00
0000
7F80
FFC0
CCC0
3FC0
FFC0
CC00
CCC0
FFC0
F780
ENDCHAR
STARTCHAR Oslashacute
ENCODING 510
SWIDTH 638 0
DWIDTH 10 0
BBX 9 15 1 0
BITMAP
0C00
1800
0000
0180
3D00
7F00
C700
C700
C980
D980
D180
F300
E300
7F00
FC00
ENDCHAR
STARTCHAR oslashacute
ENCODING 511
SWIDTH 500 0
DWIDTH 8 0
BBX 6 12 1 0
BITMAP
18
30
04
7C
FC
CC
DC
FC
EC
EC
FC
F8
ENDCHAR
STARTCHAR circumflex
ENCODING 710
SWIDTH 272 0
DWIDTH 4 0
BBX 4 2 0 10
BITMAP
60
D0
ENDCHAR
STARTCHAR caron
ENCODING 711
SWIDTH 272 0
DWIDTH 4 0
BBX 4 2 0 10
BITMAP
F0
60
ENDCHAR
STARTCHAR uni02C9
ENCODING 713
SWIDTH 500 0
DWIDTH 8 0
BBX 8 2 0 13
BITMAP
FF
FF
ENDCHAR
STARTCHAR breve
ENCODING 728
SWIDTH 272 0
DWIDTH 4 0
BBX 4 3 0 9
BITMAP
90
F0
60
ENDCHAR
STARTCHAR dotaccent
ENCODING 729
SWIDTH 272 0
DWIDTH 4 0
BBX 2 2 1 10
BITMAP
C0
C0
ENDCHAR
STARTCHAR ring
ENCODING 730
SWIDTH 272 0
DWIDTH 4 0
BBX 3 3 1 9
BITMAP
C0
A0
C0
ENDCHAR
STARTCHAR ogonek
ENCODING 731
SWIDTH 272 0
DWIDTH 4 0
BBX 3 3 1 -3
BITMAP
C0
C0
E0
ENDCHAR
STARTCHAR tilde
ENCODING 732
SWIDTH 272 0
DWIDTH 4 0
BBX 6 3 -1 9
BITMAP
64
7C
C8
ENDCHAR
STARTCHAR hungarumlaut
ENCODING 733
SWIDTH 272 0
DWIDTH 4 0
BBX 5 2 0 10
BITMAP
78
B0
ENDCHAR
STARTCHAR pi
ENCODING 960
SWIDTH 627 0
DWIDTH 10 0
BBX 9 9 0 0
BITMAP
FF80
FF80
3300
3300
3300
3300
3300
2300
6300
ENDCHAR
STARTCHAR Wgrave
ENCODING 7808
SWIDTH 773 0
DWIDTH 12 0
BBX 12 15 0 0
BITMAP
0C00
0600
0000
0000
C710
C730
6730
6F30
6F20
6DE0
69E0
29E0
39E0
38C0
38C0
ENDCHAR
STARTCHAR wgrave
ENCODING 7809
SWIDTH 638 0
DWIDTH 10 0
BBX 10 12 0 0
BITMAP
1800
0C00
0000
CCC0
CCC0
4EC0
6E80
7E80
7B80
7380
3300
3300
ENDCHAR
STARTCHAR Wacute
ENCODING 7810
SWIDTH 773 0
DWIDTH 12 0
BBX 12 15 0 0
BITMAP
0300
0600
0000
0000
C710
C730
6730
6F30
6F20
6DE0
69E0
29E0
39E0
38C0
38C0
ENDCHAR
STARTCHAR wacute
ENCODING 7811
SWIDTH 638 0
DWIDTH 10 0
BBX 10 12 0 0
BITMAP
0600
0C00
0000
CCC0
CCC0
4EC0
6E80
7E80
7B80
7380
3300
3300
ENDCHAR
STARTCHAR Wdieresis
ENCODING 7812
SWIDTH 773 0
DWIDTH 12 0
BBX 12 15 0 0
BITMAP
0D00
0D00
0000
0000
C710
C730
6730
6F30
6F20
6DE0
69E0
29E0
39E0
38C0
38C0
ENDCHAR
STARTCHAR wdieresis
ENCODING 7813
SWIDTH 638 0
DWIDTH 10 0
BBX 10 12 0 0
BITMAP
1A00
1A00
0000
CCC0
CCC0
4EC0
6E80
7E80
7B80
7380
3300
3300
ENDCHAR
STARTCHAR Ygrave
ENCODING 7922
SWIDTH 546 0
DWIDTH 9 0
BBX 9 15 0 0
BITMAP
3000
1800
0000
0000
C380
6300
6300
3600
3600
1C00
1C00
1800
1800
1800
1800
ENDCHAR
STARTCHAR ygrave
ENCODING 7923
SWIDTH 456 0
DWIDTH 7 0
BBX 7 15 0 -3
BITMAP
70
18
00
C6
66
66
6C
6C
3C
38
38
18
18
70
60
ENDCHAR
STARTCHAR endash
ENCODING 8211
SWIDTH 456 0
DWIDTH 7 0
BBX 7 2 0 4
BITMAP
FE
FE
ENDCHAR
STARTCHAR emdash
ENCODING 8212
SWIDTH 819 0
DWIDTH 13 0
BBX 13 2 0 4
BITMAP
FFF8
FFF8
ENDCHAR
STARTCHAR afii00208
ENCODING 8213
SWIDTH 819 0
DWIDTH 13 0
BBX 9 2 2 4
BITMAP
FF80
FF80
ENDCHAR
STARTCHAR underscoredbl
ENCODING 8215
SWIDTH 500 0
DWIDTH 8 0
BBX 8 2 0 -4
BITMAP
FF
FF
ENDCHAR
STARTCHAR quoteleft
ENCODING 8216
SWIDTH 228 0
DWIDTH 4 0
BBX 2 4 1 7
BITMAP
40
80
C0
C0
ENDCHAR
STARTCHAR quoteright
ENCODING 8217
SWIDTH 228 0
DWIDTH 4 0
BBX 2 4 1 7
BITMAP
C0
C0
C0
80
ENDCHAR
STARTCHAR quotesinglbase
ENCODING 8218
SWIDTH 228 0
DWIDTH 4 0
BBX 2 5 1 -3
BITMAP
C0
C0
C0
80
80
ENDCHAR
STARTCHAR quotereversed
ENCODING 8219
SWIDTH 228 0
DWIDTH 4 0
BBX 2 4 1 7
BITMAP
C0
C0
80
40
ENDCHAR
STARTCHAR quotedblleft
ENCODING 8220
SWIDTH 410 0
DWIDTH 7 0
BBX 5 4 1 7
BITMAP
58
90
D8
D8
ENDCHAR
STARTCHAR quotedblright
ENCODING 8221
SWIDTH 410 0
DWIDTH 7 0
BBX 5 4 1 7
BITMAP
D8
D8
D0
90
ENDCHAR
STARTCHAR quotedblbase
ENCODING 8222
SWIDTH 410 0
DWIDTH 7 0
BBX 5 5 1 -3
BITMAP
D8
D8
D8
90
90
ENDCHAR
STARTCHAR dagger
ENCODING 8224
SWIDTH 456 0
DWIDTH 7 0
BBX 7 14 0 -3
BITMAP
18
10
10
FE
92
10
10
10
10
10
10
10
10
18
ENDCHAR
STARTCHAR daggerdbl
ENCODING 8225
SWIDTH 456 0
DWIDTH 7 0
BBX 7 14 0 -3
BITMAP
18
10
10
FE
92
10
18
10
10
92
FE
10
10
18
ENDCHAR
STARTCHAR bullet
ENCODING 8226
SWIDTH 287 0
DWIDTH 5 0
BBX 4 4 0 4
BITMAP
70
F0
F0
70
ENDCHAR
STARTCHAR ellipsis
ENCODING 8230
SWIDTH 819 0
DWIDTH 13 0
BBX 11 2 1 0
BITMAP
CE60
CE60
ENDCHAR
STARTCHAR perthousand
ENCODING 8240
SWIDTH 819 0
DWIDTH 13 0
BBX 13 11 0 0
BITMAP
6600
F400
9400
FC00
6800
0F38
0DE8
15E8
15E8
15E8
2330
ENDCHAR
STARTCHAR minute
ENCODING 8242
SWIDTH 194 0
DWIDTH 3 0
BBX 3 3 0 8
BITMAP
60
40
C0
ENDCHAR
STARTCHAR second
ENCODING 8243
SWIDTH 389 0
DWIDTH 6 0
BBX 5 3 0 8
BITMAP
78
58
D0
ENDCHAR
STARTCHAR guilsinglleft
ENCODING 8249
SWIDTH 272 0
DWIDTH 4 0
BBX 4 7 0 2
BITMAP
30
20
60
C0
60
20
30
ENDCHAR
STARTCHAR guilsinglright
ENCODING 8250
SWIDTH 272 0
DWIDTH 4 0
BBX 4 7 0 2
BITMAP
C0
60
20
30
20
60
C0
ENDCHAR
STARTCHAR exclamdbl
ENCODING 8252
SWIDTH 545 0
DWIDTH 9 0
BBX 7 11 1 0
BITMAP
CE
CE
C6
C6
C4
C4
C4
C4
00
CE
CE
ENDCHAR
STARTCHAR uni203E
ENCODING 8254
SWIDTH 500 0
DWIDTH 8 0
BBX 8 2 0 13
BITMAP
FF
FF
ENDCHAR
STARTCHAR fraction
ENCODING 8260
SWIDTH 137 0
DWIDTH 2 0
BBX 8 11 -3 0
BITMAP
03
02
04
04
08
08
10
20
20
40
C0
ENDCHAR
STARTCHAR uni207F
ENCODING 8319
SWIDTH 325 0
DWIDTH 5 0
BBX 4 6 1 6
BITMAP
E0
B0
B0
B0
B0
B0
ENDCHAR
STARTCHAR franc
ENCODING 8355
SWIDTH 503 0
DWIDTH 8 0
BBX 7 11 1 0
BITMAP
F8
F8
C0
DA
FE
F8
D8
D8
D8
D8
D8
ENDCHAR
STARTCHAR lira
ENCODING 8356
SWIDTH 456 0
DWIDTH 7 0
BBX 7 11 0 0
BITMAP
3C
7E
66
F8
F8
60
F8
F8
60
FE
FE
ENDCHAR
STARTCHAR peseta
ENCODING 8359
SWIDTH 960 0
DWIDTH 15 0
BBX 14 11 1 0
BITMAP
FB00
FB00
CFF8
CFFC
FB40
F360
C338
C31C
C34C
C3FC
C1F8
ENDCHAR
STARTCHAR Euro
ENCODING 8364
SWIDTH 456 0
DWIDTH 7 0
BBX 7 11 0 0
BITMAP
1E
3E
70
FC
FC
FC
FC
60
30
3E
0E
ENDCHAR
STARTCHAR afii61248
ENCODING 8453
SWIDTH 789 0
DWIDTH 13 0
BBX 11 12 1 0
BITMAP
6080
F100
9300
8200
9600
B400
6BC0
0A40
1260
1260
2240
61C0
ENDCHAR
STARTCHAR afii61289
ENCODING 8467
SWIDTH 490 0
DWIDTH 8 0
BBX 6 12 1 0
BITMAP
38
6C
6C
68
78
70
70
60
E0
E0
78
38
ENDCHAR
STARTCHAR afii61352
ENCODING 8470
SWIDTH 914 0
DWIDTH 15 0
BBX 13 12 1 0
BITMAP
0030
C378
E3D8
E3D8
F3D8
F358
DB70
DB00
CF78
CF00
C700
C700
ENDCHAR
STARTCHAR trademark
ENCODING 8482
SWIDTH 819 0
DWIDTH 13 0
BBX 11 6 1 5
BITMAP
FE60
2660
25A0
25A0
25A0
25A0
ENDCHAR
STARTCHAR Omega
ENCODING 8486
SWIDTH 768 0
DWIDTH 12 0
BBX 9 12 2 0
BITMAP
1800
7E00
E700
C300
C380
C180
C180
C180
C300
C300
E780
F780
ENDCHAR
STARTCHAR estimated
ENCODING 8494
SWIDTH 600 0
DWIDTH 10 0
BBX 8 9 1 0
BITMAP
3C
42
83
83
FF
80
80
82
7C
ENDCHAR
STARTCHAR oneeighth
ENCODING 8539
SWIDTH 684 0
DWIDTH 11 0
BBX 10 11 1 0
BITMAP
C100
C200
4200
4400
E780
EA80
0A80
1380
2280
22C0
4380
ENDCHAR
STARTCHAR threeeighths
ENCODING 8540
SWIDTH 684 0
DWIDTH 11 0
BBX 11 11 0 0
BITMAP
7080
F100
2100
1200
D3C0
7540
0D40
09C0
1140
1160
21C0
ENDCHAR
STARTCHAR fiveeighths
ENCODING 8541
SWIDTH 684 0
DWIDTH 11 0
BBX 11 11 0 0
BITMAP
7080
7100
7100
5200
D3C0
7540
0D40
09C0
1140
1160
21C0
ENDCHAR
STARTCHAR seveneighths
ENCODING 8542
SWIDTH 684 0
DWIDTH 11 0
BBX 10 11 1 0
BITMAP
F100
E200
2400
4400
4B80
CA80
1280
3380
2280
42C0
C380
ENDCHAR
STARTCHAR arrowleft
ENCODING 8592
SWIDTH 1000 0
DWIDTH 16 0
BBX 14 6 1 1
BITMAP
3000
6000
FFFC
FFFC
6000
3000
ENDCHAR
STARTCHAR arrowup
ENCODING 8593
SWIDTH 500 0
DWIDTH 8 0
BBX 6 15 1 -3
BITMAP
10
30
78
FC
30
30
30
30
30
30
30
30
30
30
30
ENDCHAR
STARTCHAR arrowright
ENCODING 8594
SWIDTH 1000 0
DWIDTH 16 0
BBX 14 6 1 1
BITMAP
0030
0018
FFFC
FFFC
0018
0030
ENDCHAR
STARTCHAR arrowdown
ENCODING 8595
SWIDTH 500 0
DWIDTH 8 0
BBX 6 15 1 -3
BITMAP
30
30
30
30
30
30
30
30
30
30
30
B4
FC
78
30
ENDCHAR
STARTCHAR arrowboth
ENCODING 8596
SWIDTH 1000 0
DWIDTH 16 0
BBX 14 6 1 1
BITMAP
3030
6018
FFFC
FFFC
6018
3030
ENDCHAR
STARTCHAR arrowupdn
ENCODING 8597
SWIDTH 500 0
DWIDTH 8 0
BBX 6 15 1 -3
BITMAP
20
30
78
FC
30
30
30
30
30
30
30
B4
FC
78
30
ENDCHAR
STARTCHAR arrowupdnbse
ENCODING 8616
SWIDTH 500 0
DWIDTH 8 0
BBX 6 16 1 -4
BITMAP
20
30
78
FC
30
30
30
30
30
B4
FC
78
30
20
FC
FC
ENDCHAR
STARTCHAR partialdiff
ENCODING 8706
SWIDTH 494 0
DWIDTH 8 0
BBX 6 12 1 0
BITMAP
78
98
0C
0C
2C
7C
CC
CC
CC
CC
F8
70
ENDCHAR
STARTCHAR Delta
ENCODING 8710
SWIDTH 588 0
DWIDTH 9 0
BBX 9 11 0 0
BITMAP
1C00
1C00
1600
3600
3600
3300
6300
6300
6180
FF80
FF80
ENDCHAR
STARTCHAR product
ENCODING 8719
SWIDTH 823 0
DWIDTH 13 0
BBX 10 14 2 -2
BITMAP
FFC0
FFC0
6300
6300
6300
6300
6300
6300
6300
6300
6300
6300
6300
6300
ENDCHAR
STARTCHAR summation
ENCODING 8721
SWIDTH 712 0
DWIDTH 11 0
BBX 10 14 1 -2
BITMAP
FF80
7F80
7000
3800
1800
0C00
0E00
0E00
0C00
1800
3000
7000
7FC0
FFC0
ENDCHAR
STARTCHAR minus
ENCODING 8722
SWIDTH 479 0
DWIDTH 8 0
BBX 6 2 1 3
BITMAP
FC
FC
ENDCHAR
STARTCHAR uni2215
ENCODING 8725
SWIDTH 137 0
DWIDTH 2 0
BBX 8 12 -3 0
BITMAP
01
02
02
04
0C
08
10
10
20
20
40
C0
ENDCHAR
STARTCHAR uni2219
ENCODING 8729
SWIDTH 272 0
DWIDTH 4 0
BBX 2 2 1 5
BITMAP
C0
C0
ENDCHAR
STARTCHAR radical
ENCODING 8730
SWIDTH 548 0
DWIDTH 9 0
BBX 9 16 0 -2
BITMAP
0080
0180
0180
0100
0100
0100
0100
1300
6300
B200
3200
1200
1A00
1A00
0E00
0C00
ENDCHAR
STARTCHAR infinity
ENCODING 8734
SWIDTH 712 0
DWIDTH 11 0
BBX 10 6 1 2
BITMAP
6300
FF80
8CC0
8CC0
F780
6300
ENDCHAR
STARTCHAR orthogonal
ENCODING 8735
SWIDTH 979 0
DWIDTH 16 0
BBX 10 10 3 0
BITMAP
8000
8000
8000
8000
8000
8000
8000
8000
FFC0
FFC0
ENDCHAR
STARTCHAR intersection
ENCODING 8745
SWIDTH 722 0
DWIDTH 12 0
BBX 9 11 1 0
BITMAP
3F00
7300
6180
C180
C180
C180
C180
C180
C180
C180
C180
ENDCHAR
STARTCHAR integral
ENCODING 8747
SWIDTH 273 0
DWIDTH 4 0
BBX 4 16 0 -2
BITMAP
70
60
60
60
60
60
60
60
60
60
60
60
20
20
20
E0
ENDCHAR
STARTCHAR approxequal
ENCODING 8776
SWIDTH 548 0
DWIDTH 9 0
BBX 8 7 0 0
BITMAP
71
FF
8F
01
7D
FF
82
ENDCHAR
STARTCHAR notequal
ENCODING 8800
SWIDTH 548 0
DWIDTH 9 0
BBX 7 8 1 0
BITMAP
0C
FE
FE
10
30
FE
60
40
ENDCHAR
STARTCHAR equivalence
ENCODING 8801
SWIDTH 478 0
DWIDTH 8 0
BBX 6 9 1 0
BITMAP
FC
FC
00
FC
FC
00
00
FC
FC
ENDCHAR
STARTCHAR lessequal
ENCODING 8804
SWIDTH 548 0
DWIDTH 9 0
BBX 7 11 1 0
BITMAP
06
1E
78
E0
E0
78
1C
06
02
FE
FE
ENDCHAR
STARTCHAR greaterequal
ENCODING 8805
SWIDTH 548 0
DWIDTH 9 0
BBX 7 11 1 0
BITMAP
C0
F0
3C
0E
0E
3C
F0
C0
80
FE
FE
ENDCHAR
STARTCHAR house
ENCODING 8962
SWIDTH 600 0
DWIDTH 10 0
BBX 7 9 1 0
BITMAP
18
38
6C
C6
C2
C2
C2
C2
FE
ENDCHAR
STARTCHAR revlogicalnot
ENCODING 8976
SWIDTH 479 0
DWIDTH 8 0
BBX 6 5 1 3
BITMAP
FC
FC
80
80
80
ENDCHAR
STARTCHAR integraltp
ENCODING 8992
SWIDTH 604 0
DWIDTH 10 0
BBX 3 18 4 -4
BITMAP
E0
C0
C0
C0
C0
C0
C0
C0
C0
C0
C0
C0
C0
C0
C0
C0
C0
C0
ENDCHAR
STARTCHAR integralbt
ENCODING 8993
SWIDTH 604 0
DWIDTH 10 0
BBX 3 18 3 -4
BITMAP
60
60
60
60
60
60
60
60
60
60
60
60
60
60
60
60
60
C0
ENDCHAR
STARTCHAR commaaccent
ENCODING 63171
SWIDTH 272 0
DWIDTH 4 0
BBX 2 3 1 -4
BITMAP
C0
C0
C0
ENDCHAR
STARTCHAR uniFB01
ENCODING 64257
SWIDTH 500 0
DWIDTH 8 0
BBX 7 12 0 0
BITMAP
36
76
60
F6
F6
66
66
66
66
66
66
66
ENDCHAR
STARTCHAR uniFB02
ENCODING 64258
SWIDTH 500 0
DWIDTH 8 0
BBX 7 12 0 0
BITMAP
36
76
66
F6
F6
66
66
66
66
66
66
66
ENDCHAR
STARTCHAR .notdef
ENCODING -1
SWIDTH 228 0
DWIDTH 4 0
BBX 8 12 0 0
BITMAP
FF
C3
C3
A5
A5
99
99
99
A5
C3
C3
FF
ENDCHAR
STARTCHAR NULL
ENCODING -1
SWIDTH 0 0
DWIDTH 0 0
BBX 1 1 0 0
BITMAP
00
ENDCHAR
ENDFONT
